<svg width="728" height="200" viewBox="0 0 728 200" fill="none" xmlns="http://www.w3.org/2000/svg">
<g filter="url(#filter0_d_40_207)">
<path fill-rule="evenodd" clip-rule="evenodd" d="M159.27 34.9718L110.697 85.3365H155.584C155.677 83.7346 155.758 82.1068 155.828 80.4455L159.27 34.9718ZM360.738 147.462H360.737C361.313 143.569 360.766 139.457 358.84 135.366C356.922 131.289 353.955 127.943 350.436 125.184C344.738 126.922 339.112 129.391 333.338 132.822C329.764 134.945 326.459 137.126 323.239 139.329C323.384 139.399 323.526 139.466 323.664 139.53C327.881 141.485 332.674 143.107 337.961 144.444C345.672 146.64 353.267 147.667 360.738 147.462ZM360.446 149.004L360.447 149.005C359.831 151.714 358.668 154.297 357.045 156.669C354.766 156.251 352.473 155.777 350.171 155.248C338.301 153.275 326.41 149.591 314.415 145.436C316.966 143.689 319.462 141.93 321.997 140.18C322.233 140.293 322.464 140.401 322.69 140.507C326.997 142.499 332.029 144.276 337.803 145.835C345.432 148.086 352.983 149.211 360.446 149.004ZM361.97 148.943L361.972 148.941C361.333 151.727 360.126 154.402 358.429 156.915C376.126 159.979 392.931 159.564 406.019 154.804C417.998 150.447 425.83 138.165 421.746 125.281C414.976 127.54 408.705 130.64 402.096 134.606C393.691 139.649 385.307 143.077 377.463 146.083C373.118 147.493 368.739 148.377 364.324 148.778C363.542 148.849 362.757 148.902 361.97 148.943ZM362.272 147.401L362.265 147.393C362.893 143.22 362.239 138.826 360.023 134.377C358.258 130.833 355.523 127.553 352.271 124.653C353.956 124.185 355.65 123.778 357.36 123.429C358.543 123.924 359.859 124.171 361.307 124.171C362.369 124.171 363.497 123.964 364.697 123.554C364.845 129.256 370.048 133.97 377.129 134.699C380.484 134.967 385.359 134.563 388.529 132.357C390.697 130.847 392.153 128.704 392.238 126.541C392.345 123.831 390.8 122.13 388.756 121.213L394.748 120.719C397.822 116.907 400.796 113.301 403.668 109.9C410.653 111.732 417.128 115.319 420.238 121.562C420.689 122.466 421.077 123.373 421.406 124.276C415.977 126.006 410.671 128.285 405.467 131.266C396.402 136.459 386.551 141.789 377.209 144.921C372.842 146.17 368.429 146.956 363.972 147.296C363.407 147.339 362.84 147.373 362.272 147.401ZM562.383 31.7894L562.38 31.7924C561.604 31.8412 560.829 31.9037 560.054 31.9829C555.686 32.425 551.354 33.3471 547.064 34.792C539.323 37.8586 530.906 40.1677 522.633 45.2661C516.128 49.2716 509.948 52.416 503.264 54.7281C499.07 41.9663 506.841 30.8582 518.663 26.4106C531.582 21.5485 548.233 20.9678 565.804 23.8363C564.155 26.3481 562.985 29.0169 562.383 31.7894ZM562.111 33.3273L562.112 33.3287C561.546 33.3638 560.984 33.4034 560.42 33.4522C556.007 33.8332 551.642 34.6593 547.33 35.9427C538.106 39.1495 528.257 43.3669 519.33 48.6191C514.205 51.634 508.974 53.9507 503.613 55.7233C503.948 56.618 504.344 57.5157 504.799 58.4104C510.158 68.8967 525.195 72.8474 535.815 72.4374C536.573 72.4069 537.325 72.3566 538.071 72.2896C539.148 71.3568 540.117 70.584 540.972 69.9728C544.056 67.7414 546.927 66.6105 549.511 66.6105C550.841 66.6105 552.007 66.8803 553.013 67.4275C553.043 67.4046 553.076 67.3817 553.106 67.3604C554.445 66.3788 555.569 65.3576 556.279 64.1551C556.274 64.1368 556.271 64.1185 556.264 64.1002C557.192 62.4236 557.829 60.8339 558.139 59.3402C553.473 59.9087 532.37 64.1368 532.642 54.3608C532.701 52.2101 534.121 50.0656 536.252 48.543C539.368 46.3177 544.195 45.8681 547.523 46.1028C555.075 46.8039 560.528 52.1004 559.932 58.3388C564.151 57.8084 568.239 57.0021 572.275 55.8377C569.018 52.9875 566.271 49.7562 564.481 46.2506C562.231 41.8473 561.533 37.4851 562.111 33.3273ZM563.621 33.2632L563.627 33.2541C571.028 32.9752 578.566 33.9186 586.233 36.025C591.486 37.3008 596.255 38.8661 600.457 40.7667C600.594 40.8292 600.736 40.8948 600.88 40.9618C597.713 43.1825 594.464 45.3835 590.947 47.5295C585.262 50.997 579.714 53.5073 574.086 55.2906C570.568 52.5836 567.59 49.2899 565.643 45.2554C563.69 41.2133 563.095 37.1362 563.621 33.2632ZM563.891 31.7193L563.89 31.7178C571.285 31.4374 578.786 32.4799 586.372 34.6412C592.113 36.1318 597.12 37.8495 601.411 39.7852C601.637 39.8874 601.866 39.9925 602.1 40.1023C604.593 38.3388 607.047 36.5662 609.556 34.8027C597.621 30.7942 585.794 27.252 574.008 25.4093C571.722 24.9063 569.444 24.4582 567.179 24.0665C565.597 26.4396 564.472 29.02 563.891 31.7193ZM566.186 143.88H566.187C565.413 139.748 565.906 135.351 567.941 130.838C569.571 127.228 572.178 123.848 575.316 120.825C571.825 120.001 568.305 119.434 564.712 119.08L562.8 119.272C563.462 125.364 558.289 130.758 550.859 131.808C547.518 132.205 542.632 131.987 539.379 129.903C537.155 128.475 535.618 126.39 535.451 124.232C535.132 120.121 538.714 118.199 542.127 117.82C542.122 117.801 542.116 117.786 542.114 117.768C546.734 117.617 551.096 117.573 555.3 117.704L558.526 112.881C557.756 111.866 556.677 111.002 555.425 110.176C552.59 108.307 548.643 106.977 544.231 106.338C542.705 108.184 541.135 110.095 539.52 112.08L534.007 118.867L520.614 120.187L529.776 106.584C520.653 108.038 511.023 112.031 507.28 120.321C506.864 121.241 506.511 122.162 506.218 123.078C511.708 124.599 517.097 126.675 522.412 129.455C531.67 134.301 541.718 139.253 551.173 142.028C555.582 143.109 560.023 143.727 564.49 143.897C565.06 143.918 565.63 143.932 566.202 143.938L566.198 143.943C566.196 143.926 566.191 143.908 566.187 143.892L566.186 143.88ZM567.714 143.874L567.74 143.939C575.21 143.862 582.756 142.546 590.373 140.059C595.605 138.522 600.331 136.718 604.472 134.604C604.606 134.535 604.747 134.462 604.888 134.387C601.586 132.31 598.201 130.255 594.549 128.269C588.648 125.061 582.931 122.807 577.171 121.289C573.759 124.178 570.924 127.634 569.162 131.781C567.405 135.918 567.005 140.024 567.714 143.874ZM568.081 145.471L568.078 145.482C568.798 148.16 570.059 150.695 571.771 152.999C574.032 152.498 576.305 151.937 578.583 151.32C590.371 148.898 602.112 144.764 613.94 140.157C611.323 138.506 608.763 136.843 606.161 135.192C605.931 135.313 605.704 135.432 605.483 135.545C601.255 137.698 596.295 139.666 590.583 141.443C583.05 143.982 575.544 145.393 568.081 145.471ZM566.624 145.739L566.609 145.688C566.589 145.611 566.566 145.535 566.547 145.457L566.554 145.468C565.767 145.457 564.98 145.433 564.192 145.391C559.768 145.159 555.358 144.441 550.961 143.199C543.008 140.492 534.501 137.387 525.908 132.667C519.152 128.954 512.768 126.095 505.915 124.095C502.327 137.125 510.623 149.101 522.759 152.998C536.02 157.258 552.83 157.034 570.395 153.3C568.665 150.934 567.379 148.399 566.624 145.739ZM669.239 133.287C667.252 132.892 665.003 133.057 662.533 133.705C656.659 135.244 651.105 138.551 645.849 142.406C648.971 143.071 652.517 143.368 656.45 143.318C671.304 141.513 674.493 134.22 669.226 133.301C669.231 133.296 669.234 133.291 669.239 133.287ZM561.171 119.434C561.249 120.11 561.25 120.769 561.168 121.406C560.38 127.532 552.841 129.635 547.695 129.716C545.457 129.749 543.345 129.367 541.471 128.585C535.068 125.913 537.26 119.734 542.487 119.077C542.752 119.059 543.015 119.039 543.278 119.022C543.417 119.019 543.557 119.021 543.699 119.025C543.698 119.016 543.698 119.004 543.697 118.993C547.5 118.743 551.15 118.601 554.696 118.608L553.64 120.187L561.171 119.434ZM559.095 112.032C559.091 112.028 559.09 112.025 559.088 112.022C559.085 112.035 559.08 112.048 559.077 112.06L559.072 112.066C555.769 108.184 551.249 106.026 545.141 105.241C564.839 81.5201 576.929 69.659 581.43 69.659C582.408 69.659 583.101 69.8144 583.512 70.162C583.92 70.5079 584.109 71.1039 584.109 71.9529C584.109 72.9908 583.764 74.2467 583.038 75.6916C582.346 77.1381 580.738 79.7124 578.217 83.4542L559.095 112.032ZM530.567 105.41C529.484 105.526 528.376 105.661 527.233 105.814C515.505 108.841 508.054 114.421 505.315 122.833C501.238 121.749 497.109 120.717 492.907 120.089C493.401 119.838 493.894 119.572 494.391 119.287C498.648 116.861 503.608 112.839 509.209 107.224C515.442 100.816 520.465 93.8322 526.602 87.4124C532.872 80.7198 537.631 76.1015 540.876 73.5256C541.101 73.3442 541.322 73.1705 541.541 73.0013C545.131 72.5181 548.178 71.6295 550.747 70.2639C551.152 70.6708 551.338 71.3003 551.338 72.1417C551.338 73.742 549.573 77.1059 546.076 82.2576L545.351 83.4541L530.567 105.41ZM487.34 119.525C486.619 119.49 485.897 119.472 485.171 119.47C483.313 119.466 481.439 119.446 479.553 119.42C478.721 119.036 478.003 118.495 477.396 117.786C476.051 116.222 475.379 114.05 475.379 111.244C475.379 110.572 475.443 109.679 475.57 108.626C475.698 107.574 475.955 105.882 476.306 103.584C488.054 100.903 497.43 97.103 504.441 92.1891C511.449 87.2416 514.938 82.1341 514.938 76.8392C514.938 74.2207 513.978 72.0823 512.025 70.4529C510.104 68.7946 507.543 67.9655 504.344 67.9655C498.902 67.9655 493.173 69.6893 487.123 73.1035C481.109 76.5191 475.154 81.4651 469.265 87.8804C464.183 93.3613 459.879 99.2187 454.488 104.448C449.493 109.496 445.253 113.328 441.766 116.006C438.281 118.682 435.737 120.018 434.135 120.018C433.097 120.018 432.313 119.745 431.811 119.167C431.339 118.62 431.087 117.798 431.087 116.733C431.087 115.366 431.683 113.601 432.878 111.412C434.072 109.252 436.365 105.907 439.756 101.404C440.291 100.705 441.077 99.6409 442.049 98.3011C448.3 90.0889 451.441 83.7026 451.441 79.1408C451.441 76.4629 450.781 74.3031 449.493 72.6311C448.206 70.9576 446.511 70.1376 444.343 70.1376C441.421 70.1376 437.494 72.1129 432.628 76.0681C427.726 80.0218 420.158 87.4735 409.855 98.4551L433.754 58.9212C442.729 59.8387 452.004 59.7732 461.479 59.7183C476.555 59.822 489.42 60.2579 502.732 56.01C505.856 64.2314 513.654 70.5917 525.414 73.0381C529.642 73.3978 533.431 73.5288 536.821 73.3962C534.18 75.7907 530.962 79.0174 527.17 83.0747C522.418 88.2645 518.105 93.654 513.497 98.859C511.097 101.574 508.824 103.999 506.68 106.106C501.559 111.147 497.173 114.755 493.46 116.891C491.349 118.12 489.31 118.998 487.34 119.525ZM472.493 119.319C470.402 119.293 468.294 119.274 466.17 119.275V119.257C457.052 119.112 448.3 119.313 439.859 120.348C440.521 119.929 441.221 119.455 441.956 118.923C445.441 116.399 449.809 112.537 455.021 107.365C459.13 103.259 463.376 98.8573 466.928 94.2315C466.235 96.8333 465.807 99.5783 465.807 102.275C465.807 108.243 467.345 113.189 470.416 117.085C471.068 117.92 471.761 118.664 472.493 119.319ZM461.257 120.182V120.196C461.668 120.187 462.076 120.18 462.483 120.176C463.713 120.173 464.956 120.184 466.209 120.208C466.209 120.203 466.208 120.196 466.208 120.19C468.825 120.232 471.394 120.334 473.907 120.441C476.282 122.095 479.024 122.924 482.132 122.924C484.971 122.924 487.895 122.291 490.89 121.029C495.953 121.514 500.586 122.601 505.014 123.837C504.129 127.064 503.903 130.687 504.363 134.721C504.939 139.155 506.864 142.926 509.541 146.091C519.944 158.396 540.411 159.422 555.137 158.489C560.846 158.128 566.762 157.353 572.815 156.195C573.072 156.466 573.332 156.738 573.601 157.003C582.009 165.313 592.978 168.434 605.651 165.901C613.01 164.429 619.951 161.79 626.448 157.474C629.268 155.601 631.968 153.525 634.649 151.356C637.547 152.606 640.642 153.807 643.994 154.941C661.465 160.228 682.017 154.97 690.512 140.089C692.1 135.849 692.652 131.667 692.239 127.696C691.822 123.68 690.527 120.19 688.595 117.188C692.038 116.757 695.544 116.46 699.105 116.295C703.865 116.076 708.866 115.902 714 115.8V114.96C710.364 115.02 706.825 115.122 703.446 115.28C698.148 115.53 693.109 115.951 688.187 116.576C688.14 116.506 688.091 116.437 688.042 116.368C691.227 114.064 695.837 109.833 701.844 103.672C704.805 100.686 707.038 98.3375 708.47 96.5893C709.904 94.8746 710.605 93.6659 710.605 92.9663C710.605 92.7133 710.509 92.5533 710.319 92.4268C710.127 92.3003 709.873 92.2363 709.491 92.2363C709.045 92.2363 707.865 93.3154 705.89 95.4782C703.946 97.6684 702.194 99.4806 700.696 100.973C695.729 106.12 691.492 110.058 687.955 112.758C687.336 113.227 686.744 113.652 686.182 114.04C684.131 111.758 681.668 109.834 678.948 108.249C679.943 106.28 681.737 103.306 684.291 99.2886L705.285 66.3468L692.701 67.1073L684.834 78.5432C685.088 77.7506 685.279 76.9885 685.407 76.3225C685.534 75.6213 685.597 74.9873 685.597 74.3517C685.597 71.6814 684.673 69.5551 682.858 67.9334C681.008 66.3148 678.557 65.5207 675.53 65.5207C673.977 65.5207 672.378 65.6761 670.731 65.9886C676.276 63.4127 681.132 59.6694 684.215 54.6655C689.118 55.0496 694.128 55.2264 699.383 55.2219C704.151 55.2158 709.032 55.1136 714 54.946V54.1473C707.558 54.35 701.233 54.4079 695.038 54.4217C691.503 54.4292 688.018 54.3012 684.589 54.0376C686.355 50.9664 687.464 47.4379 687.68 43.4309C687.892 39.4695 687.14 35.3451 685.36 31.2117C676.22 16.8448 655.616 12.6062 638.58 18.6891C635.318 19.9755 632.313 21.3152 629.505 22.6946C626.745 20.669 623.971 18.7378 621.088 17.014C614.443 13.0374 607.442 10.7512 600.084 9.64159C587.415 7.73181 576.71 11.3548 568.795 20.006C568.543 20.2818 568.298 20.5623 568.057 20.8442C562.009 19.9846 556.112 19.4984 550.445 19.4115C535.822 19.1905 515.463 20.0075 505.771 32.719C503.276 35.9899 501.555 39.8247 501.204 44.2539C500.947 48.2823 501.349 51.8672 502.384 55.0268C490.757 58.8966 475.853 58.828 463.284 58.7031V58.5918C455.103 58.508 447.014 58.7869 439.757 58.4607C437.868 58.3754 436.041 58.2458 434.268 58.072L463.124 10.3394L450.873 11.949L426.783 51.9493C425.856 53.4766 424.919 54.9824 423.972 56.467C422.608 56.1682 421.271 55.8405 419.952 55.4778C420.826 52.3197 421.049 48.776 420.592 44.8284C420.019 40.4906 418.112 36.8037 415.457 33.7096C405.143 21.6854 384.857 20.7084 370.262 21.6412C364.605 22.0024 358.74 22.7676 352.743 23.9092C352.487 23.644 352.229 23.3788 351.963 23.1196C343.627 15.0004 332.754 11.9612 320.196 14.4578C312.902 15.9073 306.024 18.4968 299.585 22.731C296.792 24.5676 294.117 26.6009 291.461 28.7271C288.587 27.5077 285.52 26.3372 282.198 25.2321C264.879 20.082 244.513 25.255 236.1 39.8276C234.527 43.9779 233.982 48.0703 234.391 51.9539C234.806 55.8832 236.091 59.2974 238.008 62.2314C234.596 62.6566 231.122 62.9538 227.591 63.1185C213.309 63.7876 198.315 64.2601 182.739 63.2998C183.792 50.8535 184.847 38.4071 185.901 25.9607L193.392 8L181.264 9.42205L172.654 18.1585C161.461 7.61743 136.543 14.9075 114.031 40.8992C130.509 28.2166 150.627 22.9887 158.367 32.6564L143.721 47.5141C127.259 40.762 111.476 48.04 96.3752 69.354C113.419 56.1333 124.664 52.8533 127.513 63.9599L99.585 92.2942L72.834 120.851C57.9254 122.377 43.5217 128.879 31.6885 137.89C21.9783 145.285 4.37162 166.802 20.601 177.265C26.7604 181.237 36.6484 180.016 47.2333 178.943C53.0274 178.358 58.4314 176.852 63.8223 174.448C73.1825 170.274 82.7309 163.817 91.793 157.942C94.9202 155.915 98.0077 153.912 101.1 151.99C110.017 146.451 120.15 141.462 129.107 137.792C136.568 134.736 143.2 132.593 147.605 131.817C144.039 142.159 139.487 149.928 134.208 155.783C148.612 142.365 163.999 132.139 180.815 126.542C180.856 126.612 180.897 126.682 180.939 126.753C196.848 125.085 213.762 124.715 228.399 124.832C231.965 124.86 235.478 125.024 238.934 125.324C237.119 128.396 235.958 131.935 235.694 135.963C235.436 139.947 236.146 144.104 237.897 148.28C246.953 162.828 267.691 167.302 284.947 161.354C288.253 160.094 291.301 158.775 294.148 157.416C296.91 159.483 299.687 161.453 302.576 163.217C309.234 167.285 316.271 169.656 323.681 170.848C336.442 172.898 347.285 169.361 355.368 160.738C355.626 160.463 355.877 160.182 356.123 159.902C362.215 160.828 368.158 161.377 373.874 161.52C388.627 161.894 409.039 160.089 418.965 147.399C421.519 144.133 423.297 140.292 423.703 135.84C424.009 131.79 423.644 128.179 422.636 124.989C425.722 124 428.918 123.181 432.301 122.535C432.825 122.64 433.372 122.695 433.944 122.695C434.896 122.695 436.062 122.366 437.446 121.703C439.075 121.485 440.753 121.304 442.483 121.156C448.351 120.656 454.615 120.241 461.256 120.182L461.257 120.182ZM670.826 104.692C670.749 104.668 670.674 104.643 670.598 104.62C670.472 104.581 670.349 104.543 670.223 104.506C670.494 104.169 670.766 103.829 671.038 103.483C670.963 103.91 670.893 104.311 670.826 104.692ZM667.24 103.692C659.471 101.827 651.951 102.02 644.852 104.727C645.346 102.828 646.046 100.772 646.954 98.5572C648.927 93.6662 651.668 88.7416 655.173 83.8506C658.774 78.958 662.404 75.1445 666.066 72.4467C669.763 69.7459 673.14 68.4107 676.262 68.4107C677.982 68.4107 679.48 68.9823 680.689 70.127C681.902 71.2701 682.506 72.6998 682.506 74.352C682.506 78.2584 681.104 82.898 678.269 88.2646C675.616 93.2882 671.931 98.4201 667.24 103.692ZM636.707 109.097C636.464 109.268 636.224 109.441 635.983 109.618C627.274 116.032 625.325 126.006 630.27 133.637C625.499 135.55 620.752 137.478 616.018 139.341C613.337 137.613 610.672 135.869 607.997 134.189C615.049 130.179 624.192 123.13 622.886 114.488C622.6 112.605 621.892 111.127 620.899 109.975C622.456 108.492 624.111 106.859 625.86 105.071C629.927 101.02 634.092 96.8471 637.14 91.95C636.759 93.3796 636.472 94.8413 636.249 96.335C636.026 97.7967 635.931 99.2889 635.931 100.783C635.931 103.896 636.191 106.669 636.707 109.097ZM619.015 108.352C615.826 106.292 611.289 106.004 607.535 106.198C606.811 106.234 606.088 106.289 605.368 106.361C606.643 104.372 608.37 101.888 610.546 98.9124C611.083 98.1914 611.87 97.091 612.845 95.7086C619.116 87.2235 622.268 80.627 622.268 75.9126C622.268 73.1463 621.606 70.9149 620.315 69.1865C619.075 67.5282 617.455 66.6792 615.402 66.6152C617.673 65.2663 619.344 63.1462 619.674 59.857C620.544 51.215 611.145 44.6535 603.966 41.0107C606.533 39.2153 609.087 37.3573 611.654 35.513C616.431 37.1363 621.226 38.8235 626.043 40.494C621.522 48.3069 623.943 58.1149 632.879 64.0653C641.93 70.0918 651.59 71.4301 661.533 69.1286C660.709 69.5233 659.874 69.9531 659.027 70.4119C653.039 73.6523 647.049 78.2583 641.059 84.23C635.449 89.9548 630.985 96.4005 625.325 102.057C623.064 104.409 620.964 106.504 619.015 108.352ZM595.688 108.469C595.523 108.524 595.361 108.582 595.198 108.638C588.854 110.862 581.626 114.963 575.962 120.213C573.001 119.528 570.041 119.002 567.042 118.609C578.866 103.461 588.945 91.5446 597.279 82.8233C605.693 74.0578 611.272 69.6591 613.981 69.6591C614.769 69.7216 615.304 69.9106 615.587 70.2261C615.871 70.5081 616.029 71.104 616.093 71.953C616.093 73.4299 614.265 76.4157 610.64 80.8785C609.411 82.3539 608.436 83.5169 607.772 84.3658C602.73 90.7109 599.454 95.4252 597.943 98.536C596.43 101.679 595.674 104.697 595.674 107.554C595.674 107.864 595.677 108.169 595.688 108.469ZM644.851 143.145C642.266 145.087 639.755 147.143 637.316 149.166C636.793 149.6 636.272 150.031 635.747 150.458C645.375 154.567 655.888 156.662 666.22 154.322C678.351 151.577 690.766 143.959 690.885 133.945C691.073 127.172 689.824 121.714 687.022 117.395C686.802 117.425 686.581 117.454 686.362 117.486C683.372 119.303 680.578 120.223 677.951 120.223C676.763 120.223 675.707 120.05 674.782 119.702C660.476 123.121 646.743 128.791 633.089 134.733C633.957 136.029 635.05 137.227 636.38 138.277C638.569 140.007 641.309 141.272 644.551 142.103C650.173 137.956 656.085 134.27 662.292 132.609C665.037 131.874 667.643 131.755 670.034 132.563C670.035 132.563 670.035 132.562 670.035 132.561C673.563 133.44 673.352 137.06 670.235 139.447C666.079 142.625 660.846 143.884 655.952 144.19C652.418 144.41 648.559 144.089 644.851 143.145ZM606.708 133.389C613.767 129.336 624.853 120.927 619.495 112.601C619.321 112.331 619.128 112.072 618.919 111.825C616.628 113.924 614.571 115.655 612.752 117.012C609.253 119.621 606.575 120.909 604.717 120.909C602.007 120.909 599.832 119.684 598.161 117.233C597.039 115.587 596.301 113.583 595.937 111.235C595.728 111.308 595.518 111.383 595.309 111.459C589.395 113.589 583.058 116.527 577.9 120.685C583.586 122.135 589.308 124.198 595.358 127.071C599.196 128.894 602.964 131.069 606.708 133.389ZM617.021 110.205C616.269 109.732 615.401 109.335 614.409 109.012C610.852 108.519 607.266 108.624 603.659 109.228C603.654 109.237 603.65 109.245 603.645 109.252C602.447 111.514 601.848 113.336 601.848 114.75C601.848 115.85 602.1 116.698 602.574 117.263C603.08 117.859 603.865 118.143 604.905 118.143C606.512 118.143 609.065 116.763 612.562 113.997C613.941 112.916 615.425 111.653 617.021 110.205ZM574.284 155.907C575.318 156.939 576.449 157.91 577.674 158.803C582.837 162.572 589.111 164.194 596.264 164.122C601.779 163.789 607.295 162.798 612.81 161.088C620.478 158.709 627.012 155.313 633.303 150.766C627.06 147.983 621.727 144.967 616.698 141.876C608.033 145.581 599.323 149.079 590.438 151.865C584.983 153.491 579.584 154.843 574.284 155.907ZM634.476 149.903C635.128 149.416 635.776 148.916 636.424 148.402C638.763 146.553 641.158 144.644 643.608 142.804C639.148 141.487 634.991 139.234 632 135.895C631.853 135.73 631.711 135.563 631.572 135.396C627.266 137.276 622.966 139.176 618.658 141.034C622.065 143.203 625.502 145.31 629.002 147.2C630.786 148.161 632.614 149.07 634.476 149.903ZM685.028 114.8C683.221 112.796 680.984 111.091 678.298 109.659C677.586 111.379 677.217 112.897 677.217 114.188C677.217 115.174 677.408 115.872 677.823 116.221C678.237 116.603 679 116.792 680.115 116.792C681.281 116.792 682.917 116.132 685.028 114.8ZM670.506 106.602C670.4 106.573 670.295 106.544 670.19 106.513C669.745 106.391 669.299 106.273 668.854 106.161C665.28 110.374 661.78 113.65 658.388 115.998C654.312 118.826 650.489 120.223 646.954 120.223C643.513 120.223 640.837 118.507 638.861 115.076C638.217 113.929 637.676 112.634 637.244 111.199C630.969 116.518 628.594 125.799 632.052 132.924C640.979 129.359 649.988 125.88 659.131 123.002C664.065 121.449 668.837 120.162 673.586 119.109C673.035 118.759 672.546 118.327 672.118 117.811C670.782 116.189 670.112 113.839 670.112 110.726C670.112 109.931 670.177 109.01 670.304 107.993C670.354 107.602 670.42 107.138 670.506 106.602ZM665.644 105.457C658.439 104.114 651.11 104.367 644.322 107.117C644.079 108.48 643.958 109.748 643.958 110.917C643.958 112.727 644.374 114.156 645.169 115.206C645.965 116.251 647.111 116.792 648.547 116.792C650.648 116.792 653.262 115.745 656.417 113.616C659.379 111.645 662.454 108.916 665.644 105.457ZM357.439 34.392C356.725 31.769 355.476 29.2891 353.778 27.0334C351.538 27.5287 349.285 28.0805 347.026 28.6871C335.345 31.0724 323.709 35.1328 311.989 39.6581C314.582 41.2676 317.121 42.8923 319.7 44.5034C319.927 44.386 320.152 44.2702 320.372 44.1589C324.562 42.0449 329.477 40.1123 335.136 38.3671C342.581 35.8796 349.633 34.8005 357.439 34.392ZM358.951 34.3905L359.068 34.3951L359.069 34.3967C359.809 34.4073 360.55 34.4317 361.29 34.4683C365.675 34.6908 370.047 35.3859 374.404 36.5961C379.881 38.4281 385.62 40.4461 391.471 43.054L395.566 36.5488L407.541 35.6602L400.174 47.3689C405.634 50.2724 410.873 52.6166 416.348 54.3968H416.906L416.822 54.5493C417.56 54.784 418.306 55.0111 419.057 55.2275C422.609 42.4747 414.383 30.7676 402.352 26.9694C389.208 22.8206 372.547 23.0629 355.14 26.7392C356.847 29.0392 358.195 31.6271 358.951 34.3905ZM359.301 35.8948C360.085 39.9522 359.606 44.2762 357.579 48.7131C355.967 52.2461 353.384 55.5566 350.275 58.5196C354.362 59.4661 358.486 60.0605 362.724 60.376C361.818 54.2717 367.002 48.7984 374.509 47.7392C377.821 47.3475 382.664 47.5548 385.888 49.5896C386.246 49.8151 386.583 50.0559 386.901 50.3135L390.79 44.1376C385.238 41.58 379.62 39.306 374.195 37.7422C369.825 36.6905 365.424 36.0915 360.997 35.9315C360.435 35.9116 359.858 35.8948 359.301 35.8948ZM357.786 35.8948H357.68V35.8934C350.309 35.9909 342.862 37.288 335.345 39.7205C330.161 41.231 325.476 43.0021 321.375 45.0765C321.241 45.1435 321.101 45.2167 320.962 45.2899C324.235 47.3185 327.591 49.3243 331.211 51.2616C337.062 54.3937 342.728 56.5901 348.438 58.0685C351.817 55.2366 354.627 51.8514 356.371 47.791C358.05 43.8815 358.429 40.0649 357.786 35.8948ZM664.634 38.9797C662.685 39.466 660.452 39.4111 657.976 38.8852C652.085 37.6385 646.422 34.6206 641.03 31.0449C644.088 30.234 647.584 29.7707 651.48 29.6335C666.274 30.7142 669.789 37.8031 664.62 38.966C664.625 38.9721 664.628 38.9752 664.634 38.9797ZM544.011 71.3043C545.79 70.8669 547.465 70.3152 548.983 69.6613C548.908 69.6582 548.832 69.6582 548.751 69.6582C547.435 69.6582 545.848 70.2054 544.011 71.3043ZM558.275 58.5318C558.392 57.6295 558.383 56.7622 558.236 55.9377C557.154 49.8928 549.588 48.1644 544.489 48.332C542.272 48.4052 540.052 48.6201 538.385 49.7511C527.793 56.9314 539.423 62.1867 558.275 58.5318ZM559.823 59.1217C559.734 59.6292 559.607 60.1413 559.436 60.658C558.765 62.2096 557.866 63.7734 556.638 65.3525C556.633 65.3372 556.629 65.3205 556.624 65.3067C555.831 66.3401 554.95 67.2607 553.98 68.0807C554.307 68.3505 554.612 68.6569 554.897 68.9998C556.219 70.6002 556.882 72.7691 556.882 75.5354C556.882 78.3628 556.283 81.4096 555.085 84.6469C553.886 87.9148 551.965 91.6551 549.318 95.8648C557.796 85.2124 564.54 77.6404 569.516 73.2416C574.528 68.8093 578.719 66.61 582.184 66.61C584.391 66.61 586.218 67.3659 587.636 68.8734C589.053 70.3792 589.749 72.2662 589.749 74.528C589.749 77.8294 589.116 81.1597 587.856 84.5205C586.597 87.8508 584.578 91.5286 581.807 95.5189C591.827 84.144 599.17 76.5095 603.832 72.5497C605.834 70.8502 607.667 69.5135 609.337 68.5441C607.823 68.7529 606.302 68.8246 604.886 68.82C600.697 68.8063 596.585 68.1875 592.553 66.9864C586.163 65.0812 578.807 61.3546 572.942 56.4148C568.627 57.6372 564.297 58.5074 559.823 59.1217ZM640.007 30.3575C637.354 28.5544 634.766 26.6324 632.252 24.7409C631.712 24.334 631.176 23.9331 630.636 23.5323C639.964 18.9948 650.268 16.4129 660.611 18.2419C672.756 20.3864 685.421 27.3564 686.029 37.2924C686.549 44.0064 685.583 49.4843 683.019 53.9073C680.695 53.7001 678.394 53.4303 676.12 53.0965C659.886 50.7112 644.291 45.1647 628.779 39.2707C629.574 37.9416 630.597 36.7024 631.862 35.5959C633.942 33.773 636.593 32.386 639.761 31.406C645.531 35.2545 651.565 38.632 657.791 39.984C660.545 40.5815 663.13 40.5769 665.458 39.6609L665.459 39.6624C668.908 38.6214 668.52 35.0381 665.318 32.8174C661.048 29.8605 655.805 28.8606 650.945 28.7921C647.437 28.7418 643.633 29.2449 640.007 30.3575ZM602.73 41.865C609.917 45.552 621.304 53.3694 616.409 61.891C615.466 63.5341 613.865 64.8128 611.552 65.6984C605.366 66.8629 599.006 66.1724 592.523 64.1803C586.565 62.3498 580.148 59.7343 574.835 55.8538C580.394 54.1421 585.956 51.8208 591.804 48.6795C595.514 46.6859 599.136 44.3463 602.73 41.865ZM569.524 21.0601C570.496 19.9855 571.569 18.9689 572.737 18.0239C577.663 14.0352 583.795 12.1254 590.878 11.8541C596.355 11.9227 601.863 12.6421 607.407 14.0778C615.115 16.0715 621.75 19.132 628.202 23.3448C622.158 26.4053 617.027 29.6549 612.2 32.9638C603.441 29.6991 594.647 26.6416 585.714 24.3005C580.234 22.947 574.823 21.8633 569.524 21.0601ZM629.405 24.145C630.074 24.5977 630.74 25.0625 631.408 25.5411C633.814 27.2665 636.278 29.0467 638.794 30.7553C634.444 32.2764 630.439 34.7121 627.644 38.1689C627.505 38.3396 627.373 38.5118 627.243 38.6856C622.887 37.0242 618.539 35.3446 614.181 33.7046C617.449 31.3894 620.747 29.1336 624.119 27.0912C625.837 26.0502 627.603 25.0625 629.405 24.145ZM682.642 54.5339C679.539 59.4707 674.35 63.0418 666.893 65.5125C656.726 68.8794 645.849 69.2894 636.186 63.8481C628.225 59.3655 624.448 49.1079 627.841 41.1166C636.853 44.229 645.943 47.2529 655.135 49.6733C664.617 52.1684 673.47 53.7261 682.642 54.5339ZM193.477 124.81L218.121 87.8234C218.375 87.4408 218.788 86.8677 219.298 86.1239C222.476 81.492 224.004 78.3415 224.004 76.7045C224.004 75.8708 223.821 75.284 223.447 74.9411C223.109 74.6027 222.427 74.4503 221.466 74.4503C219.453 74.4503 216.819 75.7138 213.57 78.2775C210.285 80.8427 205.669 85.3207 199.693 91.7146C198.421 93.0421 196.905 94.7705 195.141 96.8693C193.033 99.4665 191.639 100.762 190.959 100.762C190.712 100.762 190.524 100.669 190.339 100.549C190.154 100.392 190.059 100.206 190.059 100.053C190.059 99.558 190.339 98.8797 190.929 98.046C191.486 97.2123 192.633 95.8222 194.334 93.8759L200.22 87.4804C206.042 81.2435 210.502 77.0429 213.629 74.7886C216.727 72.5648 219.576 71.4537 222.21 71.4537C224.44 71.4537 226.204 72.2249 227.506 73.7674C228.808 75.284 229.456 77.3827 229.456 80.0394C229.456 82.8195 228.869 85.8129 227.692 88.9954C226.514 92.2068 224.626 95.8831 222.023 100.053C231.439 89.4267 238.687 82.0162 243.735 77.7851C246.494 75.4714 248.956 73.7918 251.114 72.7493C245.991 70.492 241.479 67.2241 238.411 62.8284C233.533 63.4472 228.539 63.8649 223.289 64.1164C210.393 64.7336 196.604 64.6986 182.632 64.5294C181.473 78.2134 180.315 91.8989 179.156 105.584C178.397 114.557 176.882 117.801 181.498 125.426C185.424 125.22 189.441 125.007 193.477 124.81ZM253.502 71.8149C254.343 71.5741 255.125 71.4537 255.845 71.4537C257.884 71.4537 259.498 72.1838 260.747 73.6729C269.682 75.3053 278.81 74.496 286.838 69.515C294.566 64.7199 297.826 54.4501 294.038 46.7576C285.193 50.2587 276.264 53.6743 267.205 56.5032C257.858 59.4189 249.094 61.3821 239.974 62.6243C242.898 66.7365 247.364 69.7436 253.502 71.8149ZM262.106 75.9988C262.595 77.2608 262.846 78.7301 262.846 80.4097C262.846 85.0432 259.779 91.5286 253.678 99.8657C252.655 101.257 251.88 102.307 251.417 103.016C248.009 107.589 245.716 110.985 244.541 113.178C243.364 115.402 242.775 117.192 242.775 118.583C242.775 119.185 242.852 119.707 243 120.151C246.655 116.543 251.37 113.876 256.437 112.08C258.103 111.489 259.761 110.992 261.413 110.591C262.817 109.218 264.295 107.724 265.847 106.106C267.306 104.655 268.947 102.832 270.835 100.669C274.055 97.0445 278.236 93.2051 281.675 89.6964C287.663 83.7232 293.653 79.1172 299.643 75.8783C303.044 74.0295 306.271 72.708 309.338 71.9079C306.231 70.8242 303.733 68.7056 303.131 64.7839C301.832 56.3308 310.891 49.4202 317.881 45.4879C315.227 43.8479 312.585 42.1454 309.928 40.4581C305.237 42.2871 300.531 44.1801 295.805 46.0579C300.708 53.5187 298.781 63.2795 290.151 69.5667C281.506 75.8646 272.035 77.6815 262.106 75.9988ZM243.761 121.323C244.25 121.724 244.93 121.919 245.777 121.919C247.358 121.919 249.867 120.561 253.305 117.843C254.844 116.636 256.516 115.199 258.33 113.524C257.858 113.663 257.387 113.806 256.917 113.957C251.296 115.751 246.936 118.168 243.761 121.323ZM322.24 72.4963C322.677 72.7615 323.088 73.0632 323.472 73.4001C325.286 75.0203 326.209 77.148 326.209 79.8184C326.209 80.4524 326.146 81.088 326.02 81.7891C325.891 82.4537 325.702 83.2173 325.446 84.0098L333.315 72.5725L345.897 71.8134L324.904 104.755C323.238 107.377 321.894 109.553 320.885 111.297C324.636 111.465 328.32 112.115 331.933 113.23C332.537 113.416 333.147 113.615 333.764 113.833C336.06 111.737 338.576 109.271 341.31 106.439C347.629 100.14 353.163 93.2509 359.369 86.8494C365.165 80.9219 369.602 75.8875 372.712 71.754C370.218 70.6383 368.125 69.0943 366.375 67.0656C366.37 67.0793 366.366 67.0961 366.363 67.1114C365.056 65.6192 364.081 64.1255 363.334 62.6318C363.137 62.1334 362.984 61.635 362.871 61.1412C358.372 60.7556 354.004 60.1108 349.633 59.1201C344.022 64.2627 336.861 68.285 330.573 70.4706C327.846 71.4171 325.069 72.0939 322.24 72.4963ZM319.502 113.83C319.319 114.197 319.167 114.53 319.042 114.824C318.247 116.668 317.832 118.287 317.832 119.654C317.832 120.64 318.024 121.338 318.437 121.686C318.853 122.07 319.615 122.257 320.731 122.257C322.388 122.257 325 120.927 328.569 118.224C329.477 117.531 330.432 116.754 331.433 115.895C327.412 114.658 323.43 113.926 319.502 113.83ZM373.493 70.6961C373.934 70.0895 374.343 69.5042 374.721 68.9403L379.673 61.5618C374.363 61.6746 369.382 61.6151 364.566 61.2737C364.951 62.7263 365.666 64.258 366.677 65.8615C366.672 65.8798 366.669 65.8981 366.663 65.9163C367.435 67.0625 368.607 68.0121 369.993 68.9129C371.023 69.5804 372.2 70.1764 373.493 70.6961ZM380.492 60.3394L382.734 56.9984H373.831L375.335 54.3967H384.332L385.828 52.019C385.285 51.5968 384.621 51.2111 383.817 50.8804C381.96 50.1183 379.866 49.7479 377.648 49.7845C372.547 49.8684 365.076 51.9367 364.297 57.9327C364.191 58.7497 364.226 59.6032 364.388 60.4857C369.525 60.7799 374.845 60.6854 380.492 60.3394ZM399.535 48.3853L395.751 54.3967H412.899C409.466 53.188 406.071 51.737 402.705 50.004C401.658 49.4644 400.601 48.9234 399.535 48.3853ZM416.287 55.5093L415.46 56.9984H394.155L384.127 72.964C385.241 73.0387 386.375 73.0723 387.517 73.0601C398.144 72.9458 412.876 69.4935 417.704 58.9219C418.117 58.0196 418.467 57.1188 418.757 56.2226C417.932 55.997 417.108 55.7608 416.287 55.5093ZM383.476 74.0005L366.617 100.843C363.699 105.526 361.519 109.261 360.106 112.076C358.695 114.862 357.987 116.915 357.987 118.168C357.987 119.058 358.294 119.854 358.941 120.587C359.554 121.292 360.292 121.66 361.151 121.66C362.319 121.66 363.615 121.343 365.035 120.709C365.102 120.451 365.182 120.192 365.273 119.931C365.966 118.377 366.89 116.813 368.15 115.237C368.152 115.252 368.158 115.269 368.164 115.283C371.017 111.654 374.924 109.401 380.148 108.253C380.978 107.418 381.84 106.54 382.735 105.618C389.609 98.7561 396.287 91.3807 402.848 84.2201C410.176 76.1923 417.029 67.2455 423.408 57.3429C422.149 57.0777 420.897 56.7866 419.651 56.4604C416.941 64.6955 409.559 70.1641 397.935 73.1424C392.41 73.8786 387.621 74.1926 383.476 74.0005ZM367.034 119.659C367.708 119.255 368.41 118.79 369.133 118.262C371.432 116.575 374.473 113.864 378.287 110.108C375.749 110.919 373.512 111.984 371.739 113.254C370.377 114.228 369.232 115.243 368.5 116.446C368.506 116.464 368.51 116.482 368.515 116.502C367.895 117.59 367.395 118.643 367.034 119.659ZM430.459 121.895C429.3 121.303 428.286 120.384 427.41 119.136C425.745 116.766 424.929 113.63 424.929 109.768C424.929 107 425.681 104.08 427.191 101.039C428.698 98.0276 431.963 93.4642 436.99 87.3203C437.65 86.5003 438.624 85.3755 439.847 83.9458C443.46 79.6263 445.283 76.7365 445.283 75.3068C445.218 74.4853 445.031 73.9076 444.684 73.5738C444.34 73.237 443.836 73.0861 443.177 73.0861C440.288 73.0861 434.445 77.3766 425.62 85.9516C419.315 92.1016 412.234 99.7971 404.39 109.041C413.599 111.916 419.659 116.836 422.296 123.995C424.986 123.17 427.706 122.475 430.459 121.895ZM383.795 121.622L383.386 121.655L383.416 121.608C378.062 121.469 373.01 121.536 368.145 121.928C367.528 122.291 366.924 122.611 366.337 122.885C366.3 123.506 366.331 124.111 366.429 124.693C367.45 130.785 375.065 132.6 380.211 132.484C382.449 132.433 384.544 131.971 386.386 131.119C392.682 128.205 390.256 122.114 385.007 121.657C384.743 121.648 384.478 121.638 384.215 121.631C384.076 121.634 383.936 121.64 383.794 121.651C383.795 121.642 383.795 121.631 383.795 121.622ZM384.239 120.34L392.037 108.314C391.08 108.291 390.146 108.296 389.243 108.32C387.136 108.381 385.068 108.59 383.097 108.936C377.247 114.818 372.818 118.804 369.778 120.893C369.743 120.918 369.707 120.939 369.674 120.963C374.297 120.562 379.111 120.387 384.239 120.34ZM392.66 107.354L410.386 80.0211C401.608 89.16 393.171 98.5337 384.42 107.584C386.913 107.331 389.654 107.261 392.66 107.354ZM356.329 122.913C355.493 122.425 354.736 121.794 354.058 121.017C352.248 118.935 351.325 116.118 351.325 112.597C351.325 107.944 355.594 99.2195 364.097 86.421C365.05 84.9212 365.787 83.7888 366.247 82.9932C362.9 86.36 359.4 90.0638 355.777 94.1668C351.343 99.1859 347.198 104.359 342.457 109.139C340.338 111.311 338.392 113.243 336.622 114.937C341.767 117.087 347.124 120.224 351.598 124.063C353.173 123.637 354.745 123.253 356.329 122.913ZM334.516 116.915C331.66 119.544 329.345 121.431 327.58 122.576C324.364 124.641 321.368 125.69 318.565 125.69C316.017 125.69 314.073 124.896 312.734 123.277C311.398 121.655 310.727 119.305 310.727 116.191C310.727 115.9 310.733 115.589 310.752 115.264C309.448 116.031 308.471 116.984 307.806 118.113C302.77 126.636 314.169 134.618 321.378 138.4C325.032 135.938 328.713 133.623 332.479 131.655C338.414 128.554 344.054 126.275 349.68 124.609C345.124 121.215 339.734 118.747 334.516 116.915ZM311.073 112.376C311.213 111.469 311.409 110.331 311.652 108.948C307.32 114.475 303.084 118.637 299.004 121.463C298.546 121.782 298.087 122.08 297.636 122.362C300.936 127.792 301.046 134.161 297.844 139.543C302.683 141.273 307.502 143.018 312.303 144.701C314.915 142.872 317.512 141.029 320.123 139.247C312.921 135.51 303.515 128.813 304.491 120.128C304.973 115.837 307.699 113.548 311.073 112.376ZM295.214 123.716C292.537 125.034 289.988 125.69 287.57 125.69C284.129 125.69 281.451 123.974 279.475 120.543C278.203 118.275 277.338 115.444 276.895 112.056C272.337 111.315 267.668 111.507 263.056 112.385C259.354 116.004 256.16 118.816 253.491 120.806C250.054 123.371 247.419 124.637 245.594 124.637C244.169 124.637 242.895 124.291 241.767 123.602C241.462 124.004 241.175 124.42 240.901 124.842C250.144 125.749 259.059 127.406 268.597 130.012C277.843 132.541 286.978 135.675 296.034 138.898C298.141 134.1 297.656 128.455 295.214 123.716ZM276.673 109.843C276.589 108.7 276.547 107.502 276.547 106.248C276.547 104.756 276.641 103.262 276.864 101.802C277.087 100.307 277.376 98.8464 277.756 97.4167C275.001 100.528 269.975 105.44 267.461 107.988L266.376 109.071C266.143 109.308 265.911 109.542 265.682 109.773C269.402 109.255 273.072 109.26 276.673 109.843ZM240.664 122.777C240.12 122.288 239.617 121.704 239.154 121.023C237.511 118.615 236.707 115.434 236.707 111.511C236.707 108.702 237.449 105.736 238.935 102.646C240.421 99.5887 243.643 94.9552 248.6 88.7488C249.248 87.8831 250.209 86.7415 251.418 85.2904C254.978 80.9039 256.775 77.9698 256.775 76.5173C256.775 75.7446 256.619 75.1898 256.311 74.9108C256.031 74.603 255.475 74.4505 254.698 74.4505C251.788 74.4505 246.049 78.7655 237.48 87.3892C228.939 95.9824 218.154 109.409 206.379 124.263C212.502 124.052 218.475 123.933 224.022 123.983C229.324 124.03 234.376 124.259 239.319 124.696C239.738 124.035 240.185 123.393 240.664 122.777ZM477.363 100.582C485.907 98.7001 493.268 95.0299 499.382 89.5398C505.494 84.0818 508.568 78.9118 508.568 74.1244C508.568 73.0727 508.247 72.1765 507.576 71.4113C506.934 70.6767 506.136 70.2941 505.207 70.2941C501.014 70.2941 496.086 73.2312 490.483 79.0703C484.852 84.9445 480.466 92.0928 477.363 100.582ZM284.576 116.384C284.576 118.193 284.99 119.622 285.785 120.673C286.583 121.718 287.729 122.258 289.163 122.258C290.445 122.258 291.915 121.868 293.584 121.081C292.076 119.026 290.152 117.251 287.879 115.943C286.83 115.341 285.765 114.806 284.687 114.337C284.612 115.048 284.576 115.731 284.576 116.384ZM295.825 119.859C296.22 119.618 296.621 119.36 297.033 119.083C300.186 116.986 303.466 114.03 306.874 110.25C312.036 104.596 316.05 99.0995 318.885 93.7314C321.72 88.3648 323.122 83.7237 323.122 79.8187C323.122 78.165 322.518 76.7369 321.305 75.5937C320.096 74.4491 318.599 73.8775 316.878 73.8775C313.755 73.8775 310.379 75.2127 306.683 77.912C303.02 80.6113 299.39 84.4248 295.788 89.3158C292.285 94.2084 289.545 99.1315 287.572 104.024C286.315 107.086 285.458 109.846 284.991 112.302C287.098 113.224 289.176 114.372 291.218 115.76C293.025 116.987 294.561 118.37 295.825 119.859ZM258.892 140.674C260.863 140.205 263.116 140.284 265.609 140.837C271.538 142.151 277.215 145.245 282.615 148.899C279.52 149.682 275.989 150.113 272.056 150.212C257.143 148.973 253.678 141.807 258.907 140.689C258.901 140.683 258.898 140.68 258.892 140.674ZM283.639 149.6C286.295 151.441 288.883 153.401 291.397 155.329C291.937 155.744 292.475 156.154 293.014 156.561C283.552 161.033 273.128 163.525 262.711 161.581C250.485 159.298 237.787 152.159 237.285 142.156C236.841 135.395 237.878 129.894 240.513 125.471C242.857 125.702 245.175 125.998 247.465 126.356C263.816 128.92 279.486 134.658 295.069 140.746C294.251 142.075 293.205 143.311 291.917 144.411C289.795 146.225 287.107 147.592 283.899 148.547C278.123 144.616 272.073 141.157 265.808 139.734C263.035 139.104 260.428 139.083 258.069 139.982C258.068 139.981 258.068 139.981 258.068 139.98C254.575 140.992 254.925 144.603 258.131 146.867C262.404 149.885 267.684 150.945 272.585 151.065C276.125 151.15 279.969 150.682 283.639 149.6ZM354.642 159.668C353.648 160.74 352.554 161.752 351.365 162.691C346.35 166.654 340.143 168.513 332.993 168.714C327.469 168.589 321.919 167.809 316.342 166.309C308.588 164.224 301.93 161.078 295.469 156.776C301.601 153.756 306.815 150.54 311.723 147.259C320.522 150.633 329.36 153.797 338.345 156.244C343.858 157.661 349.304 158.807 354.642 159.668ZM294.263 155.957C293.594 155.495 292.927 155.02 292.259 154.532C289.852 152.773 287.387 150.955 284.868 149.211C289.274 147.725 293.341 145.317 296.203 141.865C296.343 141.695 296.479 141.523 296.612 141.351C300.987 143.066 305.355 144.8 309.733 146.494C306.41 148.79 303.056 151.026 299.63 153.047C297.886 154.078 296.093 155.053 294.263 155.957ZM257.186 46.4546C259.156 46.8371 261.383 46.6725 263.83 46.0354C269.652 44.5219 275.156 41.2785 280.365 37.4986C277.27 36.8523 273.756 36.5673 269.857 36.6222C255.136 38.407 251.978 45.5477 257.198 46.4393C257.196 46.4454 257.191 46.4485 257.186 46.4546ZM281.352 36.7746C283.912 34.8724 286.401 32.8559 288.817 30.873C289.335 30.4477 289.852 30.0271 290.37 29.6064C280.828 25.6009 270.409 23.5646 260.169 25.8676C248.147 28.57 235.844 36.0399 235.731 45.8388C235.548 52.4643 236.787 57.8035 239.566 62.0269C241.878 61.7099 244.162 61.3319 246.416 60.8929C262.511 57.7562 277.811 51.5421 293.011 44.9883C292.151 43.7217 291.067 42.5526 289.75 41.5269C287.579 39.8366 284.863 38.602 281.65 37.7942C276.079 41.8591 270.22 45.4745 264.07 47.1069C261.349 47.8293 258.768 47.9497 256.397 47.1633C256.396 47.1633 256.396 47.1648 256.396 47.1648C252.899 46.3098 253.107 42.7676 256.194 40.428C260.312 37.3126 265.498 36.0735 270.349 35.7686C273.851 35.5476 277.676 35.857 281.352 36.7746ZM319.157 46.2686C312.164 50.2437 301.179 58.4864 306.494 66.6269C307.518 68.1953 309.181 69.375 311.535 70.131C317.771 70.9754 324.089 69.9862 330.465 67.7106C336.323 65.6194 342.604 62.7357 347.715 58.6601C342.079 57.2487 336.406 55.2383 330.41 52.4354C326.605 50.6567 322.871 48.5335 319.157 46.2686ZM351.285 24.1941C350.261 23.1851 349.138 22.2371 347.924 21.3637C342.807 17.6844 336.588 16.1038 329.499 16.1846C324.033 16.5199 318.567 17.4954 313.1 19.1766C305.502 21.5146 299.027 24.8465 292.794 29.3031C298.983 32.0177 304.268 34.9609 309.256 37.9802C317.841 34.3421 326.472 30.9066 335.278 28.1707C340.682 26.5718 346.034 25.2412 351.285 24.1941ZM291.631 30.1491C290.986 30.6261 290.343 31.1169 289.701 31.6199C287.384 33.4321 285.011 35.3038 282.584 37.1069C287.005 38.3903 291.125 40.5881 294.09 43.8514C294.237 44.0129 294.378 44.176 294.517 44.3391C298.783 42.4933 303.043 40.6293 307.313 38.8048C303.935 36.6878 300.528 34.6301 297.057 32.7859C295.29 31.847 293.478 30.963 291.631 30.1491ZM63.6076 173.157C72.8655 169.11 82.1998 162.884 91.2069 157.044C94.3861 154.984 97.524 152.949 100.532 151.08C109.493 145.513 119.687 140.495 128.698 136.803C136.524 133.597 143.479 131.383 147.992 130.669C150.838 122.092 153.022 111.795 154.41 99.4079H97.1267L76.7187 120.569C77.3699 120.542 78.021 120.524 78.6721 120.516C89.2276 120.385 98.4656 122.853 102.048 127.995C107.127 125.462 112.208 122.706 117.29 120.173C116.691 121.961 116.093 123.749 115.496 125.537C104.139 130.902 92.7828 136.265 81.4264 141.63C67.5633 127.956 44.1215 135.339 30.3363 145.388C21.8725 151.559 9.14155 167.579 23.3676 175.385C28.5621 178.233 36.5349 178.23 46.4331 177.572C52.427 177.173 58.0624 175.581 63.6076 173.157Z" fill="white"/>
</g>
<defs>
<filter id="filter0_d_40_207" x="0" y="0" width="728" height="200" filterUnits="userSpaceOnUse" color-interpolation-filters="sRGB">
<feFlood flood-opacity="0" result="BackgroundImageFix"/>
<feColorMatrix in="SourceAlpha" type="matrix" values="0 0 0 0 0 0 0 0 0 0 0 0 0 0 0 0 0 0 127 0" result="hardAlpha"/>
<feOffset dy="6"/>
<feGaussianBlur stdDeviation="7"/>
<feComposite in2="hardAlpha" operator="out"/>
<feColorMatrix type="matrix" values="0 0 0 0 0 0 0 0 0 0 0 0 0 0 0 0 0 0 0.75 0"/>
<feBlend mode="normal" in2="BackgroundImageFix" result="effect1_dropShadow_40_207"/>
<feBlend mode="normal" in="SourceGraphic" in2="effect1_dropShadow_40_207" result="shape"/>
</filter>
</defs>
</svg>
