<svg width="50" height="50" viewBox="0 0 50 50" fill="none" xmlns="http://www.w3.org/2000/svg">
<g clip-path="url(#clip0_64_5)">
<rect width="50" height="50" rx="10" fill="white"/>
<path fill-rule="evenodd" clip-rule="evenodd" d="M25.0693 22.4349L36.6573 10.4293L35.8362 21.269C35.8194 21.665 35.8001 22.053 35.7778 22.4349H25.0693ZM41.7973 32.2572L41.9602 31.9911C41.0506 30.4898 41.1388 29.7011 41.2992 28.2669C41.333 27.9646 41.37 27.6337 41.4016 27.2614L42.2308 17.475L42.2563 17.1819C42.5075 14.2151 42.7591 11.2482 43.0107 8.28133L44.7978 4L41.9045 4.33898L39.8503 6.42151C37.1799 3.90881 31.2353 5.64656 25.8645 11.8422C29.7957 8.81907 34.5953 7.57289 36.4418 9.87741L32.9476 13.419C29.0204 11.8095 25.2551 13.5444 21.6524 18.6251C25.7185 15.4736 28.4012 14.6918 29.0809 17.3393L22.4181 24.0934L16.0361 30.9005C12.4793 31.2642 9.04304 32.8141 6.21998 34.9621C3.90339 36.7249 -0.297057 41.8539 3.57481 44.3481C4.98025 45.2537 7.19944 45.0269 9.59952 44.7816C9.70883 44.7704 9.81851 44.7592 9.92851 44.7481C11.3108 44.6086 12.6001 44.2496 13.8862 43.6767C15.876 42.7899 17.9015 41.4713 19.8488 40.2036C20.0869 40.0487 20.3237 39.8945 20.5592 39.7419L20.5953 39.7185C21.329 39.2433 22.0537 38.7739 22.7795 38.3231C24.9069 37.0028 27.3245 35.8137 29.4613 34.9388C31.2411 34.2104 32.8233 33.6995 33.8742 33.5146C33.0235 35.9797 31.9376 37.8316 30.6781 39.2274C34.1146 36.0288 37.7855 33.5913 41.7973 32.2572ZM90.3837 31.0883C90.3866 31.0884 90.3895 31.0885 90.3924 31.0886C90.4321 31.0899 90.4719 31.0912 90.5117 31.0926C90.4691 31.0911 90.4262 31.0897 90.3837 31.0883ZM19.9298 39.8456C17.9333 41.1418 15.8763 42.4771 13.835 43.3687C12.512 43.9467 11.1676 44.326 9.73762 44.4212C7.37618 44.5782 5.4741 44.5789 4.23485 43.8998C0.840913 42.0393 3.87816 38.2204 5.89738 36.7494C9.18614 34.354 14.7787 32.5941 18.086 35.8538C19.4685 35.2012 20.8509 34.5487 22.2333 33.8963C23.5602 33.27 24.8871 32.6438 26.214 32.0175C26.3565 31.5913 26.4991 31.1651 26.6421 30.7389C26.0337 31.042 25.4254 31.3583 24.8171 31.6746C24.2133 31.9887 23.6095 32.3027 23.0058 32.6035C22.1511 31.3777 19.9472 30.7895 17.4289 30.8207C17.2736 30.8225 17.1182 30.8269 16.9629 30.8334L21.8317 25.7891H35.4978C35.1668 28.7418 34.6457 31.1964 33.9667 33.2408C32.8899 33.4112 31.2307 33.9387 29.3638 34.7031C27.2138 35.5831 24.782 36.7792 22.6441 38.1064C21.9336 38.5473 21.1928 39.0271 20.4422 39.5133L20.4194 39.528C20.2566 39.6335 20.0934 39.7394 19.9298 39.8456ZM129.576 18.6976C129.586 18.6976 129.595 18.6976 129.604 18.6977ZM129.604 18.6977C129.613 18.6978 129.623 18.698 129.632 18.6983Z" fill="black"/>
</g>
<defs>
<clipPath id="clip0_64_5">
<rect width="50" height="50" rx="10" fill="white"/>
</clipPath>
</defs>
</svg>
