<svg width="114" height="30" viewBox="0 0 114 30" fill="none" xmlns="http://www.w3.org/2000/svg">
<path fill-rule="evenodd" clip-rule="evenodd" d="M15.6664 12.5545L23.536 4.37849L22.9783 11.7605C22.9669 12.0302 22.9538 12.2944 22.9387 12.5545H15.6664ZM50.8047 18.5998C51.0907 18.4139 51.4656 18.1076 51.9285 17.6808L52.2697 17.3596C52.5565 17.0848 52.8717 16.771 53.2149 16.4184C53.7444 15.8837 54.2279 15.3185 54.7125 14.7522C54.931 14.4968 55.1498 14.2412 55.3731 13.988C55.9599 13.3219 56.527 12.7206 57.0693 12.1741C57.0113 12.2747 56.9261 12.4084 56.8182 12.5777C56.7876 12.6257 56.7551 12.6767 56.7209 12.7305C55.3433 14.8082 54.6517 16.2245 54.6517 16.9799C54.6517 17.5514 54.8013 18.0087 55.0945 18.3466C55.2044 18.4728 55.327 18.5753 55.4624 18.6544L55.6296 18.7382C55.8212 18.8187 56.0344 18.8587 56.2689 18.8587C56.441 18.8587 56.6238 18.8251 56.8182 18.7585C56.8422 19.6842 57.6852 20.4494 58.8324 20.5677C59.376 20.6113 60.1657 20.5457 60.6793 20.1877C61.0307 19.9425 61.2664 19.5946 61.2803 19.2435C61.2976 18.8036 61.0473 18.5274 60.7162 18.3785L61.6869 18.2983C62.1849 17.6795 62.6668 17.0941 63.1321 16.5421L63.249 16.4026C64.5199 14.902 65.6672 13.6527 66.6886 12.6543C68.1185 11.2623 69.0652 10.5658 69.5332 10.5658C69.6399 10.5658 69.7216 10.5903 69.7774 10.645C69.8336 10.6992 69.8638 10.7929 69.8744 10.9263C69.8744 11.1584 69.579 11.6275 68.9936 12.3287L68.8862 12.4545C68.7379 12.6278 68.6176 12.7685 68.5308 12.8765C67.7163 13.8739 67.1874 14.6147 66.9432 15.1036C66.6985 15.5972 66.5767 16.0713 66.5767 16.5206C66.5767 17.1476 66.7089 17.6566 66.9786 18.0413C67.1205 18.244 67.2849 18.3932 67.4726 18.4892L67.7711 18.5932C67.856 18.6102 67.9446 18.6191 68.0373 18.6191C68.1915 18.6191 68.3805 18.5657 68.6046 18.4581C68.8686 18.4227 69.1405 18.3932 69.4208 18.3692C70.3714 18.2881 71.3865 18.2208 72.4624 18.2111V18.2134C72.529 18.2119 72.5952 18.2109 72.661 18.2102C72.8604 18.2097 73.0617 18.2114 73.2647 18.2154L73.2646 18.2124C73.6885 18.2193 74.1048 18.2359 74.5119 18.2532C74.8967 18.5217 75.341 18.6563 75.8444 18.6563C76.3045 18.6563 76.7782 18.5536 77.2633 18.3487C78.0837 18.4274 78.8343 18.6038 79.5517 18.8045C79.4083 19.3283 79.3717 19.9164 79.4462 20.5714C79.5396 21.2911 79.8513 21.9033 80.2852 22.4172C81.9706 24.4146 85.2866 24.5812 87.6723 24.4297C88.5972 24.3711 89.5558 24.2454 90.5364 24.0574C90.5781 24.1014 90.6201 24.1454 90.6637 24.1885C92.026 25.5375 93.8032 26.0442 95.8563 25.633C97.0487 25.394 98.1732 24.9657 99.2259 24.265C99.6828 23.9609 100.12 23.6239 100.554 23.2718C101.024 23.4747 101.525 23.6696 102.068 23.8537C104.899 24.7121 108.229 23.8584 109.605 21.4428C109.862 20.7545 109.952 20.0755 109.885 19.431C109.817 18.779 109.608 18.2124 109.295 17.7252C109.852 17.6552 110.42 17.6069 110.997 17.5802C111.768 17.5446 112.579 17.5164 113.411 17.4998V17.3635C112.821 17.3731 112.248 17.3897 111.701 17.4154C110.842 17.456 110.026 17.5243 109.229 17.6257C109.221 17.6143 109.213 17.6032 109.205 17.5921C109.721 17.218 110.468 16.5311 111.441 15.531C111.921 15.0463 112.283 14.665 112.515 14.3812C112.747 14.1029 112.861 13.9066 112.861 13.7931C112.861 13.752 112.845 13.726 112.814 13.7055C112.783 13.685 112.742 13.6746 112.68 13.6746C112.608 13.6746 112.417 13.8497 112.097 14.2008C111.782 14.5564 111.498 14.8506 111.255 15.0928C110.45 15.9284 109.764 16.5677 109.191 17.0059C109.091 17.0821 108.995 17.1512 108.904 17.214C108.571 16.8436 108.172 16.5314 107.732 16.274C107.893 15.9544 108.183 15.4716 108.597 14.8194L111.999 9.47177L109.96 9.59523L108.685 11.4517C108.726 11.323 108.757 11.1993 108.778 11.0912C108.799 10.9774 108.809 10.8744 108.809 10.7713C108.809 10.3378 108.659 9.9926 108.365 9.72934C108.065 9.46657 107.668 9.33766 107.178 9.33766C106.926 9.33766 106.667 9.3629 106.4 9.41362C107.299 8.99547 108.085 8.38779 108.585 7.57548C109.379 7.63784 110.191 7.66654 111.042 7.66579C111.815 7.66481 112.606 7.64823 113.411 7.62101V7.49136C112.367 7.52427 111.342 7.53367 110.338 7.5359C109.766 7.53712 109.201 7.51635 108.646 7.47354C108.932 6.97498 109.111 6.40218 109.146 5.7517C109.181 5.10863 109.059 4.43909 108.77 3.76808C107.29 1.43583 103.951 0.747745 101.191 1.73522C100.663 1.94405 100.176 2.16154 99.7212 2.38546C99.274 2.05663 98.8245 1.74314 98.3575 1.4633C97.2808 0.817757 96.1466 0.446616 94.9545 0.266489C92.9019 -0.0435373 91.1675 0.544598 89.8852 1.949C89.8443 1.99378 89.8047 2.03931 89.7656 2.08508C88.7857 1.94553 87.8303 1.8666 86.9121 1.8525C84.543 1.81662 81.2445 1.94924 79.6743 4.01278C79.2702 4.54376 78.9913 5.16628 78.9344 5.88531C78.8928 6.53926 78.9579 7.12121 79.1255 7.63412C77.2418 8.26234 74.8271 8.25121 72.7909 8.23092V8.21286C72.2907 8.20772 71.7927 8.21097 71.3033 8.21416C70.4956 8.21943 69.7112 8.22455 68.9791 8.19158C68.673 8.17772 68.3771 8.15669 68.0898 8.12848L72.7649 0.379771L70.7801 0.641065L66.877 7.13455C66.7269 7.38247 66.5751 7.62693 66.4216 7.86792C66.2007 7.81943 65.984 7.76623 65.7703 7.70734C65.912 7.19467 65.9481 6.6194 65.8741 5.97857C65.7812 5.27439 65.4722 4.67586 65.042 4.17359C63.371 2.22163 60.0844 2.06303 57.7198 2.21446C56.8033 2.2731 55.8531 2.3973 54.8814 2.58263C54.8401 2.53957 54.7982 2.49652 54.7551 2.45446C53.4045 1.13641 51.6429 0.643044 49.6083 1.04833C48.4266 1.28363 47.3123 1.70401 46.269 2.39137C45.8166 2.68952 45.3832 3.01958 44.9528 3.36474C44.4873 3.1668 43.9903 2.97678 43.4522 2.79739C40.6463 1.96134 37.3466 2.80111 35.9836 5.16676C35.7288 5.8405 35.6404 6.50485 35.7067 7.13529C35.7738 7.77316 35.9821 8.3274 36.2926 8.80369C35.7399 8.87273 35.177 8.92097 34.605 8.9477C32.2911 9.05632 29.8619 9.13302 27.3382 8.97714C27.5089 6.95665 27.6797 4.93616 27.8506 2.91566L29.0642 0L27.0994 0.23085L25.7043 1.64909C23.8908 -0.0621042 19.8538 1.12134 16.2065 5.34071C18.8762 3.28188 22.1356 2.4332 23.3896 4.00262L21.0167 6.41454C18.3497 5.31844 15.7926 6.49992 13.346 9.95994C16.1074 7.81376 17.9292 7.28129 18.3908 9.08429L13.8661 13.684L9.53199 18.3198C7.11658 18.5674 4.78297 19.623 2.86581 21.0857C1.2926 22.2863 -1.55994 25.7792 1.06946 27.4778C2.0239 28.0945 3.53097 27.9401 5.16088 27.773L5.38429 27.7502C6.32302 27.6552 7.19855 27.4107 8.07196 27.0205C9.42329 26.4166 10.7988 25.5187 12.1212 24.6553C12.2829 24.5498 12.4437 24.4448 12.6036 24.3409L12.6282 24.325C13.1264 24.0013 13.6186 23.6817 14.1115 23.3747C15.5562 22.4755 17.198 21.6657 18.6491 21.0699C19.8578 20.5738 20.9323 20.2259 21.646 20.1C21.0682 21.7788 20.3308 23.0399 19.4755 23.9905C21.8092 21.8122 24.3021 20.1522 27.0265 19.2436L27.0466 19.2778C28.3804 19.1377 29.7579 19.054 31.1052 19.0085L31.1683 18.8737C33.0761 16.4623 34.8234 14.2827 36.2072 12.8877C37.5954 11.4878 38.5252 10.7873 38.9967 10.7873C39.1225 10.7873 39.2127 10.812 39.258 10.862C39.308 10.9073 39.3333 10.9974 39.3333 11.1228C39.3333 11.3586 39.042 11.8349 38.4653 12.547L38.4012 12.6241C38.2353 12.8234 38.1019 12.9836 38.0087 13.1084C37.2056 14.1159 36.6836 14.8681 36.4429 15.3645C36.2022 15.866 36.0818 16.3475 36.0818 16.8035C36.0818 17.4404 36.2121 17.9568 36.4783 18.3477C36.5533 18.4583 36.6348 18.5531 36.723 18.6325L36.9016 18.7663C37.0844 18.8781 37.2909 18.9343 37.5217 18.9343C37.8174 18.9343 38.2443 18.7289 38.8012 18.3125C39.2336 17.9894 39.7511 17.5329 40.3509 16.9455L40.7762 16.5214L40.805 16.4923L40.8426 16.4543C40.8579 16.4388 40.8733 16.4231 40.8887 16.4074L41.0645 16.2317C41.1616 16.133 41.282 16.0125 41.4149 15.8793C41.8394 15.4542 42.3926 14.9001 42.7325 14.5155C42.6709 14.7476 42.6241 14.9847 42.5879 15.2274C42.5518 15.4644 42.5367 15.7069 42.5367 15.9491C42.5367 16.1528 42.5433 16.3472 42.557 16.5328L42.593 16.892C42.6648 17.442 42.8049 17.9015 43.011 18.2697C43.3312 18.8266 43.765 19.1053 44.3224 19.1053C44.7142 19.1053 45.1272 18.9989 45.5608 18.7848L45.9533 18.5651C46.0264 18.5193 46.1007 18.4708 46.175 18.4191C46.8359 17.9604 47.5223 17.2847 48.2241 16.3875C48.1848 16.6119 48.1531 16.7968 48.1303 16.944L48.0783 17.4128C48.0753 17.4656 48.0743 17.516 48.0743 17.5633C48.0743 18.0688 48.183 18.4503 48.3995 18.7136C48.6164 18.9763 48.9314 19.1053 49.3442 19.1053C49.7983 19.1053 50.2837 18.935 50.8047 18.5998ZM88.469 3.89329C88.5945 3.88042 88.7205 3.86978 88.8463 3.86187C88.9438 3.4118 89.1334 2.97856 89.4006 2.5708C86.5538 2.10514 83.8561 2.19941 81.7631 2.9887C79.8476 3.7107 78.5887 5.51395 79.2682 7.58565C80.3511 7.2103 81.3523 6.69986 82.4062 6.04962C83.3969 5.4379 84.4004 5.07353 85.3628 4.72404C85.7026 4.60068 86.0372 4.47917 86.3644 4.3493C87.0595 4.11474 87.7613 3.96504 88.469 3.89329ZM88.5283 4.1318C88.6197 4.12388 88.7106 4.11721 88.8022 4.11152C88.7086 4.78649 88.8217 5.49463 89.1862 6.20945C89.4762 6.77853 89.9212 7.30308 90.4489 7.76576C89.7952 7.9548 89.1327 8.08569 88.4493 8.17179C88.5458 7.15907 87.6623 6.29926 86.4387 6.18545C85.8996 6.14734 85.1176 6.22033 84.6127 6.58158C84.2675 6.82876 84.0374 7.17689 84.0278 7.52601C83.9882 8.95223 86.7456 8.54238 87.8534 8.37771C87.9783 8.35915 88.0822 8.3437 88.1588 8.33435C88.1085 8.57683 88.0053 8.8349 87.855 9.10707C87.8555 9.1086 87.8559 9.11014 87.8563 9.11167L87.8574 9.11598C87.7423 9.3112 87.5603 9.47697 87.3433 9.63632L87.3343 9.64274L87.3282 9.6472C87.1653 9.55838 86.9763 9.51458 86.7609 9.51458C86.3422 9.51458 85.8771 9.69817 85.3774 10.0604C85.2389 10.1596 85.082 10.2851 84.9074 10.4365C84.7865 10.4474 84.6647 10.4555 84.5419 10.4605C82.8213 10.527 80.3851 9.88571 79.5169 8.18341C79.4431 8.03817 79.379 7.89244 79.3247 7.7472C80.1932 7.45944 81.0408 7.08335 81.8712 6.59394C83.3173 5.74131 84.9131 5.05668 86.4075 4.5361C87.1061 4.32776 87.8134 4.19366 88.5283 4.1318ZM89.0479 4.09964L89.0469 4.10113C88.9617 4.72984 89.058 5.39171 89.3745 6.04789C89.69 6.70283 90.1724 7.23752 90.7424 7.67695C91.6542 7.38746 92.5531 6.97995 93.4741 6.41705C94.0439 6.06867 94.5703 5.71139 95.0834 5.35088L95.0585 5.33927L95.0148 5.31921C94.3341 5.01067 93.5615 4.75656 92.7103 4.54947C91.4682 4.20752 90.2469 4.05436 89.0479 4.09964ZM92.7329 4.32481C91.5039 3.97396 90.2887 3.80496 89.0907 3.85048C89.1848 3.41229 89.3671 2.99341 89.6234 2.60816C89.9904 2.67175 90.3594 2.74449 90.7298 2.82615C92.6393 3.12528 94.5555 3.70031 96.489 4.35104C96.2603 4.51216 96.0343 4.67375 95.8085 4.83528L95.8057 4.83724C95.6312 4.96206 95.4567 5.08684 95.2811 5.21135C95.2432 5.19353 95.206 5.17646 95.1694 5.15988C94.4743 4.84565 93.663 4.5668 92.7329 4.32481ZM89.7469 19.9409C89.417 20.6736 89.3371 21.3874 89.4624 22.0582L89.4627 22.0602L89.4631 22.0617C89.4635 22.0636 89.464 22.0656 89.4643 22.0675C89.372 22.0666 89.2798 22.0643 89.1877 22.0609C88.4639 22.0334 87.7445 21.933 87.0301 21.7575C85.4983 21.307 83.8703 20.5031 82.3704 19.7165C81.5094 19.2652 80.6362 18.9282 79.7467 18.6813C79.7943 18.5326 79.8515 18.3831 79.9188 18.2337C80.5253 16.8879 82.0854 16.2397 83.5635 16.0036L82.0792 18.2119L84.2489 17.9976L85.1421 16.8958C85.4039 16.5737 85.6582 16.2634 85.9053 15.9638C86.6203 16.0675 87.2597 16.2835 87.719 16.5868C87.9218 16.7209 88.0967 16.8612 88.2215 17.026L87.6987 17.8089C87.0177 17.7876 86.311 17.7947 85.5624 17.8192C85.5628 17.8222 85.5638 17.8247 85.5646 17.8277C85.0116 17.8893 84.4312 18.2013 84.4829 18.8686C84.5099 19.2189 84.7591 19.5574 85.1194 19.7893C85.6463 20.1275 86.438 20.1629 86.9793 20.0985C88.1831 19.9281 89.0211 19.0524 88.9138 18.0635L89.2236 18.0323C89.8058 18.0897 90.3761 18.1817 90.9417 18.3156C90.4333 18.8062 90.0109 19.355 89.7469 19.9409ZM89.4643 22.0675L89.4651 22.0676L89.4645 22.0683L89.4643 22.0675ZM89.7142 22.0678L89.71 22.0572C89.5951 21.4322 89.66 20.7656 89.9446 20.0941C90.2301 19.4208 90.6894 18.8599 91.2421 18.3908C92.1755 18.6372 93.1016 19.0032 94.0577 19.524C94.6493 19.8464 95.1978 20.1799 95.7327 20.5172L95.7075 20.5305C95.6932 20.538 95.6791 20.5453 95.6654 20.5523C94.9945 20.8955 94.2288 21.1885 93.3812 21.4379C92.147 21.8417 90.9244 22.0552 89.7142 22.0678ZM89.7691 22.3183L89.7695 22.3165C90.9787 22.3039 92.1946 22.0748 93.4152 21.6626C94.3406 21.3741 95.1442 21.0547 95.8291 20.705C95.865 20.6867 95.9017 20.6674 95.9391 20.6479C96.1257 20.7665 96.311 20.8855 96.4963 21.0046L96.4975 21.0053C96.7304 21.155 96.9634 21.3047 97.1993 21.4538C95.2831 22.2017 93.3808 22.8727 91.471 23.2659C91.1018 23.3661 90.7336 23.4572 90.3673 23.5386C90.09 23.1645 89.8857 22.753 89.7691 22.3183ZM89.531 22.3516L89.5335 22.36C89.6558 22.7918 89.8641 23.2033 90.1444 23.5873C87.2986 24.1935 84.5751 24.2299 82.4267 23.5383C80.4604 22.9057 79.1163 20.9616 79.6977 18.8464C80.8079 19.171 81.8422 19.6352 82.9368 20.2379C84.329 21.0042 85.7073 21.5082 86.9957 21.9476C87.7082 22.1493 88.4226 22.2658 89.1395 22.3034C89.2668 22.3103 89.3941 22.3142 89.5213 22.316C89.523 22.3223 89.5247 22.3285 89.5264 22.3347L89.531 22.3516ZM89.5213 22.316L89.5209 22.3143L89.5221 22.316L89.5213 22.316ZM105.072 20.4063C105.472 20.3012 105.837 20.2745 106.159 20.3385L106.157 20.3408C107.01 20.49 106.493 21.6739 104.087 21.9669C103.449 21.975 102.875 21.9268 102.369 21.8189C103.221 21.1932 104.121 20.6562 105.072 20.4063ZM88.6495 18.4098C88.6628 18.3064 88.6625 18.1995 88.6499 18.0897L87.4298 18.2119L87.6009 17.9556C87.0264 17.9546 86.435 17.9776 85.8189 18.0182C85.8191 18.0199 85.8191 18.0219 85.8193 18.0234C85.7963 18.0226 85.7735 18.0224 85.751 18.0229L85.7053 18.0259L85.6678 18.0286L85.6229 18.0318C84.776 18.1384 84.4209 19.1415 85.4583 19.5752C85.7619 19.7022 86.1041 19.7643 86.4666 19.7588C87.3004 19.7457 88.5217 19.4043 88.6495 18.4098ZM88.3124 16.8864L88.3136 16.8882L91.4117 12.2489C91.8201 11.6415 92.0806 11.2236 92.1928 10.9888C92.3104 10.7542 92.3663 10.5503 92.3663 10.3818C92.3663 10.244 92.3356 10.1473 92.2695 10.0911C92.2029 10.0347 92.0907 10.0095 91.9322 10.0095C91.203 10.0095 89.2442 11.9349 86.0529 15.7856C87.0425 15.9131 87.7747 16.2634 88.3099 16.8936L88.3107 16.8926L88.3112 16.8908L88.3121 16.8878L88.3124 16.8864ZM83.1515 15.8787C83.3367 15.8539 83.5162 15.8319 83.6916 15.8131L86.087 12.2489L86.2043 12.0547C86.7709 11.2184 87.0569 10.6723 87.0569 10.4125C87.0569 10.2759 87.0267 10.1737 86.9611 10.1077C86.5448 10.3293 86.0513 10.4736 85.4696 10.552C85.4342 10.5795 85.3983 10.6077 85.3619 10.6372C84.8362 11.0553 84.065 11.805 83.0492 12.8915C82.5682 13.3956 82.1295 13.9212 81.6904 14.4473C81.2218 15.0087 80.7527 15.5706 80.2314 16.1075C79.3238 17.0191 78.5202 17.672 77.8306 18.0659C77.7501 18.1122 77.6701 18.1552 77.5901 18.1961C78.2709 18.298 78.94 18.4655 79.6004 18.6414C80.0442 17.2759 81.2514 16.3701 83.1515 15.8787ZM76.3369 18.0956C76.4545 18.0958 76.5714 18.0988 76.6883 18.1045C77.0075 18.0189 77.3378 17.8764 77.6798 17.677C78.2813 17.3301 78.992 16.7444 79.8215 15.9262C80.169 15.584 80.5372 15.1903 80.926 14.7497C81.2441 14.3896 81.5536 14.0242 81.8635 13.6581C82.281 13.165 82.6995 12.6708 83.1413 12.1873C83.7557 11.5287 84.277 11.0049 84.7049 10.6161C84.1556 10.6377 83.5417 10.6164 82.8568 10.558C80.9515 10.1609 79.6881 9.12837 79.1819 7.79374C77.1755 8.43528 75.2317 8.41873 73.0038 8.39976C72.8369 8.39834 72.6685 8.39691 72.4983 8.39573L72.4434 8.39605C70.9274 8.40487 69.4433 8.41351 68.0065 8.26633L64.1345 14.6841C65.8038 12.9014 67.0298 11.6917 67.824 11.0499C68.6125 10.4078 69.2486 10.0871 69.7221 10.0871C70.0732 10.0871 70.3479 10.2203 70.5564 10.4919C70.7651 10.7634 70.8721 11.114 70.8721 11.5487C70.8721 12.2892 70.3632 13.326 69.3504 14.6591C69.1929 14.8766 69.0656 15.0493 68.979 15.1629C68.4295 15.8938 68.058 16.4369 67.8646 16.7875C67.671 17.1428 67.5744 17.4293 67.5744 17.6512C67.5744 17.8242 67.6152 17.9576 67.6918 18.0464C67.773 18.1402 67.9 18.1844 68.0682 18.1844C68.3277 18.1844 68.74 17.9677 69.3046 17.5332C69.8695 17.0985 70.5564 16.4765 71.3657 15.657C71.8863 15.151 72.3443 14.6087 72.8038 14.0648C73.1151 13.6962 73.4272 13.3268 73.7598 12.9674C74.7139 11.926 75.6787 11.1231 76.6531 10.5686C77.6333 10.0144 78.5614 9.73454 79.4432 9.73454C79.9615 9.73454 80.3763 9.86915 80.6876 10.1383C81.004 10.4028 81.1595 10.75 81.1595 11.1751C81.1595 12.0346 80.5942 12.8637 79.4588 13.6669C78.3229 14.4646 76.8039 15.0814 74.9006 15.5167C74.8437 15.8898 74.8021 16.1644 74.7813 16.3352C74.7607 16.5061 74.7503 16.6511 74.7503 16.7602C74.7503 17.2157 74.8593 17.5683 75.0772 17.8222C75.1755 17.9372 75.2919 18.0251 75.4266 18.0874C75.7322 18.0916 76.0358 18.0949 76.3369 18.0956ZM73.2583 18.0639C73.6025 18.0637 73.944 18.0669 74.2828 18.0711C74.1642 17.9647 74.052 17.844 73.9462 17.7084C73.4487 17.076 73.1996 16.2731 73.1996 15.3041C73.1996 14.8664 73.269 14.4208 73.3811 13.9985C72.8056 14.7494 72.1177 15.464 71.4521 16.1305C70.6076 16.9701 69.8999 17.597 69.3353 18.0068C69.2162 18.0931 69.1028 18.1701 68.9956 18.2381C70.3632 18.0701 71.7812 18.0375 73.2583 18.061V18.0639ZM106.408 15.6942L106.416 15.6966L106.45 15.5004C106.406 15.5565 106.362 15.6117 106.318 15.6664C106.338 15.6723 106.358 15.6785 106.379 15.6849L106.394 15.6895L106.408 15.6942ZM102.208 15.7023C103.358 15.2628 104.576 15.2314 105.835 15.5343C106.595 14.6784 107.192 13.8453 107.622 13.0298C108.081 12.1586 108.308 11.4055 108.308 10.7713C108.308 10.5031 108.21 10.271 108.014 10.0854C107.818 9.89961 107.575 9.80682 107.296 9.80682C106.791 9.80682 106.244 10.0236 105.645 10.462C105.051 10.9 104.463 11.519 103.88 12.3133C103.312 13.1072 102.868 13.9067 102.548 14.7007C102.401 15.0602 102.288 15.394 102.208 15.7023ZM100.771 16.4963C100.81 16.4676 100.849 16.4394 100.888 16.4116C100.804 16.0175 100.762 15.5674 100.762 15.0619C100.762 14.8194 100.778 14.5772 100.814 14.3399C100.85 14.0975 100.896 13.8602 100.958 13.6281C100.464 14.4231 99.7895 15.1005 99.1305 15.7582C98.8473 16.0484 98.5791 16.3134 98.3267 16.5541C98.4877 16.7412 98.6023 16.9812 98.6486 17.2868C98.8604 18.6897 97.379 19.834 96.2365 20.485C96.5553 20.6856 96.8734 20.8919 97.1922 21.0986C97.3067 21.1729 97.4213 21.2472 97.536 21.3213C98.0808 21.1065 98.6267 20.8864 99.1743 20.6656C99.3976 20.5755 99.6211 20.4854 99.845 20.3955C99.0439 19.1566 99.3596 17.5374 100.771 16.4963ZM96.1617 15.941C96.7699 15.9096 97.5048 15.9564 98.0216 16.2906C98.3374 15.9908 98.6776 15.6506 99.0439 15.2688C99.5161 14.796 99.9369 14.2891 100.358 13.7818C100.755 13.304 101.152 12.8256 101.593 12.3749C102.563 11.4054 103.534 10.6577 104.504 10.1317C104.641 10.0572 104.777 9.98743 104.91 9.92335C103.299 10.297 101.734 10.0797 100.268 9.1014C98.82 8.13544 98.4278 6.54326 99.1603 5.27494C98.9344 5.19648 98.7089 5.11779 98.4836 5.03919L98.4792 5.03765L98.4611 5.03133L98.4574 5.03002C97.913 4.84004 97.3703 4.65065 96.8291 4.46635C96.7254 4.54094 96.6219 4.61567 96.5185 4.69034L96.5179 4.69076C96.2063 4.91567 95.8955 5.1401 95.5835 5.35882C96.7466 5.95017 98.2693 7.01534 98.1284 8.41825C98.0749 8.9522 97.8042 9.29637 97.4362 9.51534C97.7688 9.52574 98.0313 9.66355 98.2321 9.93275C98.4414 10.2133 98.5486 10.5756 98.5486 11.0247C98.5486 11.79 98.038 12.8608 97.0219 14.2382C96.864 14.4627 96.7364 14.6413 96.6495 14.7583C96.2969 15.2413 96.0171 15.6446 95.8105 15.9675C95.9272 15.9559 96.0443 15.947 96.1617 15.941ZM94.2157 16.3187L94.2423 16.3097C94.2404 16.261 94.24 16.2115 94.24 16.1613C94.24 15.6973 94.3624 15.2074 94.6075 14.6972C94.8524 14.1922 95.3831 13.4269 96.2001 12.3969C96.2949 12.2753 96.429 12.1141 96.596 11.9133L96.6646 11.8308C97.252 11.1063 97.5482 10.6216 97.5482 10.3819C97.5378 10.244 97.5123 10.1473 97.4662 10.1015C97.4204 10.0503 97.3337 10.0196 97.2059 10.0095C96.7671 10.0095 95.8633 10.7235 94.5001 12.1465C93.1497 13.5623 91.5168 15.4967 89.6011 17.9558C90.087 18.0197 90.5667 18.105 91.0463 18.2161C91.9641 17.364 93.1351 16.6982 94.1628 16.3372L94.2157 16.3187ZM100.987 22.9162C101.382 22.5879 101.789 22.2541 102.207 21.9389C102.808 22.0921 103.433 22.1441 104.006 22.1085C104.799 22.0588 105.647 21.8544 106.32 21.3385C106.825 20.9511 106.859 20.3638 106.287 20.221C105.9 20.0899 105.478 20.1092 105.033 20.2285C104.027 20.4982 103.07 21.0964 102.159 21.7697C101.634 21.6348 101.19 21.4295 100.835 21.1486C100.62 20.9782 100.442 20.7837 100.302 20.5734C102.514 19.6087 104.739 18.6882 107.057 18.1332C107.207 18.1897 107.378 18.2179 107.57 18.2179C107.996 18.2179 108.448 18.0684 108.933 17.7735C108.956 17.77 108.98 17.7668 109.004 17.7635L109.04 17.7586C109.494 18.4599 109.696 19.3459 109.666 20.4454C109.646 22.071 107.635 23.3077 105.67 23.7533C103.996 24.1331 102.292 23.7931 100.732 23.1261C100.817 23.0568 100.902 22.9868 100.987 22.9162ZM98.0994 16.9805C98.9673 18.3322 97.1713 19.6972 96.0277 20.3551C95.421 19.9785 94.8106 19.6255 94.1888 19.3295C93.2086 18.8631 92.2815 18.5281 91.3603 18.2928C92.1961 17.6178 93.2227 17.1408 94.1808 16.7952C94.2148 16.7828 94.2487 16.7707 94.2826 16.7588C94.3416 17.1398 94.4612 17.4652 94.6429 17.7324C94.9136 18.1303 95.266 18.3292 95.705 18.3292C96.0061 18.3292 96.44 18.1201 97.0068 17.6965C97.3015 17.4763 97.6348 17.1952 98.006 16.8545C98.0399 16.8946 98.0711 16.9367 98.0994 16.9805ZM97.2753 16.3978C97.436 16.4502 97.5766 16.5148 97.6985 16.5915C97.4399 16.8266 97.1995 17.0317 96.9761 17.2071C96.4095 17.6562 95.996 17.8801 95.7355 17.8801C95.5671 17.8801 95.4398 17.8341 95.3578 17.7374C95.2811 17.6456 95.2402 17.508 95.2402 17.3293C95.2402 17.0997 95.3373 16.8041 95.5314 16.4369C95.5323 16.4356 95.5329 16.4344 95.5337 16.4329C96.1181 16.3349 96.699 16.3179 97.2753 16.3978ZM91.3237 24.4807C91.1253 24.3357 90.9421 24.1781 90.7744 24.0106C91.6332 23.8379 92.5078 23.6184 93.3916 23.3544C94.8311 22.9021 96.2424 22.3343 97.6462 21.7328C98.4609 22.2346 99.3249 22.7242 100.336 23.176C99.3172 23.9141 98.2586 24.4654 97.0162 24.8516C96.1228 25.1292 95.2291 25.2901 94.3356 25.3443C93.1767 25.3559 92.1602 25.0926 91.3237 24.4807ZM100.842 22.7923C100.737 22.8757 100.632 22.9568 100.526 23.036C100.225 22.9007 99.9287 22.7532 99.6397 22.5971C99.0726 22.2903 98.5157 21.9483 97.9637 21.5962C98.4241 21.3973 98.8839 21.1953 99.3438 20.9933L99.3452 20.9927L99.3502 20.9905L99.3512 20.9901C99.5861 20.8869 99.8209 20.7838 100.056 20.681L100.081 20.7102C100.095 20.7275 100.11 20.7448 100.125 20.7619C100.61 21.304 101.283 21.6697 102.006 21.8835C101.659 22.1449 101.318 22.415 100.984 22.6795L100.842 22.7923ZM107.626 16.5029C108.061 16.7353 108.424 17.0121 108.717 17.3375C108.375 17.5538 108.11 17.6609 107.921 17.6609C107.74 17.6609 107.616 17.6302 107.549 17.5681C107.482 17.5115 107.451 17.3981 107.451 17.238C107.451 17.0285 107.511 16.782 107.626 16.5029ZM106.313 15.9922C106.33 15.9972 106.347 16.0019 106.364 16.0066C106.35 16.0937 106.339 16.1689 106.331 16.2325C106.311 16.3975 106.3 16.547 106.3 16.6761C106.3 17.1814 106.409 17.5629 106.625 17.8262C106.694 17.9101 106.774 17.9801 106.863 18.037C106.093 18.208 105.32 18.4168 104.521 18.6689C103.04 19.1361 101.58 19.7009 100.134 20.2797C99.5735 19.1229 99.9584 17.6164 100.975 16.7528C101.045 16.9859 101.133 17.196 101.237 17.3823C101.557 17.9393 101.991 18.2179 102.548 18.2179C103.121 18.2179 103.74 17.991 104.401 17.532C104.95 17.1507 105.517 16.619 106.096 15.9351C106.168 15.9532 106.241 15.9725 106.313 15.9922ZM102.122 16.0902C103.221 15.6439 104.409 15.6028 105.576 15.8208C105.059 16.3822 104.561 16.8253 104.081 17.1453C103.57 17.4909 103.147 17.6609 102.806 17.6609C102.574 17.6609 102.388 17.5731 102.259 17.4033C102.13 17.2329 102.063 17.001 102.063 16.7071C102.063 16.5173 102.082 16.3114 102.122 16.0902ZM55.0492 3.08979C55.3243 3.45599 55.5266 3.85855 55.6423 4.28437C54.3776 4.35068 53.235 4.52586 52.0288 4.92966C51.1121 5.21297 50.3157 5.52671 49.6369 5.86989C49.6013 5.88795 49.5649 5.90675 49.528 5.92581C49.3454 5.8115 49.164 5.69676 48.9826 5.58199L48.982 5.5816C48.7485 5.43392 48.515 5.28619 48.2787 5.13923C50.1775 4.40462 52.0628 3.74548 53.9552 3.35825C54.3212 3.25978 54.6862 3.17021 55.0492 3.08979ZM55.9063 4.28487L55.8872 4.28412C55.7649 3.83553 55.5464 3.41542 55.2698 3.04205C58.0901 2.44526 60.7893 2.40591 62.9189 3.07941C64.868 3.696 66.2008 5.59648 65.6253 7.66672C65.5037 7.63158 65.3829 7.59471 65.2633 7.55661L65.2769 7.53187H65.1865C64.2995 7.24287 63.4506 6.86233 62.566 6.39098L63.7596 4.49024L61.8194 4.63449L61.156 5.69051C60.2081 5.26716 59.2782 4.93957 58.3909 4.64216C57.6849 4.44571 56.9767 4.33288 56.2663 4.29675C56.1464 4.29082 56.0261 4.28659 55.9063 4.28487ZM55.6651 6.60919C55.9934 5.88893 56.0709 5.18698 55.9439 4.52833C56.0343 4.52833 56.1276 4.53106 56.2188 4.53427C56.9359 4.56025 57.6491 4.65749 58.3571 4.82822C59.2359 5.08208 60.1462 5.45124 61.0456 5.86642L60.4156 6.869C60.3641 6.82718 60.3094 6.78809 60.2515 6.75147C59.7292 6.42116 58.9445 6.38751 58.4078 6.45109C57.1917 6.62305 56.3517 7.51156 56.4986 8.5025C55.8119 8.45129 55.1438 8.35479 54.4816 8.20114C54.9853 7.72014 55.4038 7.18273 55.6651 6.60919ZM55.6814 4.52833H55.6985C55.8027 5.20529 55.7414 5.82486 55.4692 6.45951C55.1867 7.11865 54.7315 7.66819 54.184 8.12791C53.2588 7.88791 52.3409 7.53136 51.3929 7.0229C50.8065 6.70842 50.2627 6.3828 49.7325 6.05348C49.7551 6.0416 49.7776 6.02973 49.7994 6.01884C50.4638 5.68209 51.2228 5.39458 52.0628 5.14938C53.2806 4.75448 54.4871 4.54416 55.6814 4.52833ZM104.334 5.01378C104.735 5.09914 105.097 5.10805 105.412 5.02912L105.41 5.02689C106.248 4.83811 105.678 3.68732 103.281 3.51189C102.65 3.53416 102.084 3.60938 101.588 3.74101C102.462 4.32148 103.379 4.81138 104.334 5.01378ZM86.6753 10.0098C86.4294 10.116 86.158 10.2055 85.8698 10.2766C86.1674 10.0982 86.4245 10.0093 86.6377 10.0093L86.6565 10.0094C86.6629 10.0095 86.6691 10.0096 86.6753 10.0098ZM88.1745 7.782C88.1983 7.91585 88.1998 8.05664 88.1807 8.20312C85.1264 8.79644 83.2422 7.94332 84.9583 6.77769C85.2284 6.5941 85.588 6.55921 85.9473 6.54733C86.7734 6.52012 87.9992 6.8007 88.1745 7.782ZM88.3689 8.54828C88.3966 8.4644 88.4172 8.38127 88.4315 8.29887C89.1564 8.19916 89.858 8.05789 90.557 7.85945C91.5072 8.66136 92.699 9.26632 93.7344 9.57561C94.3876 9.77058 95.0538 9.87104 95.7325 9.87326C95.9618 9.874 96.2082 9.86238 96.4536 9.82848C96.183 9.98584 95.8861 10.2028 95.5617 10.4787C94.8064 11.1215 93.6168 12.3609 91.9933 14.2074C92.4422 13.5597 92.7694 12.9626 92.9734 12.422C93.1775 11.8764 93.28 11.3358 93.28 10.7999C93.28 10.4327 93.1673 10.1264 92.9378 9.88192C92.7079 9.63722 92.412 9.51449 92.0544 9.51449C91.4931 9.51449 90.8141 9.87153 90.0021 10.591C89.1958 11.3051 88.1032 12.5343 86.7296 14.2636C87.1585 13.5802 87.4698 12.973 87.6639 12.4425C87.858 11.917 87.9551 11.4224 87.9551 10.9634C87.9551 10.5143 87.8476 10.1622 87.6334 9.90245C87.5874 9.84678 87.5379 9.79705 87.4849 9.75325C87.6421 9.62013 87.7847 9.47069 87.9133 9.30293C87.9141 9.30516 87.9147 9.30788 87.9155 9.31036C88.1146 9.05402 88.2602 8.80016 88.3689 8.54828ZM100.166 2.71765C100.573 3.02471 100.993 3.33672 101.423 3.62942C102.01 3.4488 102.626 3.36713 103.195 3.37529C103.982 3.38643 104.831 3.54874 105.523 4.02875C106.042 4.38925 106.105 4.9707 105.546 5.13969C105.169 5.28839 104.75 5.28914 104.304 5.19214C103.295 4.97268 102.318 4.42438 101.383 3.79962C100.869 3.95872 100.44 4.18388 100.103 4.4798C99.898 4.65943 99.7323 4.86059 99.6035 5.07635C102.117 6.03316 104.643 6.93355 107.273 7.32077C107.642 7.37496 108.015 7.41875 108.391 7.4524C108.807 6.73438 108.963 5.84512 108.879 4.75521C108.78 3.14224 106.728 2.01075 104.761 1.66262C103.085 1.36571 101.416 1.78485 99.9044 2.52144C99.9918 2.58652 100.079 2.65159 100.166 2.71765ZM97.5994 8.74844C98.3923 7.36508 96.5475 6.09603 95.3831 5.4975C94.8009 5.90031 94.214 6.2801 93.613 6.60374C92.6656 7.11368 91.7644 7.49052 90.8638 7.76838C91.7246 8.39833 92.7641 8.82291 93.7294 9.12007C94.7799 9.44346 95.8103 9.55555 96.8124 9.36651C97.1871 9.22276 97.4466 9.01516 97.5994 8.74844ZM90.5239 1.62724C90.3347 1.78065 90.1608 1.94568 90.0033 2.12012C90.8619 2.25051 91.7385 2.42643 92.6262 2.64615C94.0737 3.0262 95.4983 3.52253 96.9175 4.05252C97.6995 3.51536 98.5308 2.98784 99.5099 2.49101C98.4647 1.80712 97.3897 1.31029 96.1409 0.986651C95.2427 0.753575 94.3503 0.636789 93.463 0.625655C92.3155 0.669697 91.322 0.979723 90.5239 1.62724ZM100.029 2.84755C99.9213 2.76986 99.8133 2.69439 99.7048 2.62091C99.4129 2.76986 99.1269 2.93019 98.8485 3.09919C98.3022 3.43074 97.7678 3.79693 97.2384 4.17277C97.7116 4.35122 98.1842 4.53256 98.6569 4.71396L98.6606 4.71537C98.8919 4.80414 99.1232 4.89291 99.3547 4.98137C99.3757 4.95316 99.397 4.9252 99.4196 4.89749C99.8725 4.33632 100.521 3.94093 101.226 3.694C100.862 3.44659 100.506 3.18992 100.156 2.93858L100.029 2.84755ZM105.779 9.33634C106.987 8.93526 107.827 8.35553 108.33 7.55412C106.844 7.42298 105.41 7.17011 103.873 6.76507C102.384 6.37215 100.912 5.88126 99.4515 5.37601C98.9018 6.67328 99.5137 8.33846 100.804 9.06614C102.369 9.94946 104.131 9.8829 105.779 9.33634ZM33.0707 12.9582L29.0779 18.9625C28.5152 18.99 27.9547 19.0195 27.4038 19.0484L27.1372 19.0625C26.5195 18.0401 26.5794 17.5029 26.6883 16.5262C26.7112 16.3203 26.7364 16.095 26.7578 15.8414L27.3209 9.17674C29.5845 9.20421 31.8187 9.2099 33.9079 9.10969C34.7586 9.06887 35.5676 9.00107 36.358 8.90062C36.855 9.6142 37.5861 10.1447 38.4161 10.5111C38.0665 10.6804 37.6675 10.953 37.2205 11.3286C36.4026 12.0155 35.2283 13.2185 33.7029 14.9435C34.1246 14.2666 34.4305 13.6698 34.6214 13.1484C34.8121 12.6318 34.9072 12.1459 34.9072 11.6946C34.9072 11.2633 34.8022 10.9226 34.5912 10.6764C34.3802 10.426 34.0944 10.3008 33.7331 10.3008C33.3065 10.3008 32.8449 10.4812 32.3429 10.8422C31.8363 11.2081 31.1137 11.89 30.1705 12.9025L29.2168 13.9407C28.9412 14.2567 28.7555 14.4823 28.6651 14.6177C28.5695 14.753 28.5242 14.8631 28.5242 14.9435C28.5242 14.9683 28.5395 14.9985 28.5695 15.024C28.5995 15.0435 28.6299 15.0586 28.6701 15.0586C28.7802 15.0586 29.0061 14.8483 29.3476 14.4267C29.6333 14.086 29.879 13.8054 30.085 13.5899C31.0533 12.5519 31.8011 11.825 32.3333 11.4085C32.8598 10.9924 33.2864 10.7873 33.6126 10.7873C33.7683 10.7873 33.8788 10.812 33.9335 10.8669C33.9942 10.9226 34.0239 11.0179 34.0239 11.1532C34.0239 11.4189 33.7762 11.9304 33.2614 12.6823C33.2236 12.7375 33.1891 12.7869 33.1589 12.8302C33.123 12.8816 33.0931 12.9245 33.0707 12.9582ZM39.1826 10.3008C39.0659 10.3008 38.9391 10.3204 38.803 10.3594C37.8084 10.0232 37.0849 9.53503 36.6112 8.86747C38.0888 8.66582 39.5087 8.34713 41.023 7.8738C42.4907 7.41458 43.9374 6.86009 45.3704 6.29175C45.9841 7.54051 45.4559 9.20767 44.2038 9.98608C42.9033 10.7947 41.4244 10.9261 39.9767 10.6611C39.7744 10.4193 39.5129 10.3008 39.1826 10.3008ZM40.3167 11.7547C40.3167 11.482 40.2761 11.2435 40.1969 11.0386C41.8055 11.3118 43.3401 11.0169 44.7407 9.99448C46.1388 8.97383 46.4511 7.38932 45.6567 6.17816C45.8754 6.09108 46.0939 6.00379 46.3122 5.9166C46.8578 5.69859 47.402 5.4812 47.9448 5.26911C48.0555 5.33954 48.166 5.41013 48.2764 5.48067C48.5955 5.68447 48.9139 5.88785 49.2333 6.08562C48.1008 6.72399 46.6331 7.84582 46.8436 9.21806C46.9412 9.85469 47.3458 10.1986 47.8492 10.3745C47.3522 10.5044 46.8295 10.7189 46.2785 11.0191C45.308 11.5449 44.3376 12.2926 43.3673 13.2623C43.1707 13.4632 42.9592 13.6709 42.7448 13.8813C42.3516 14.2673 41.9488 14.6627 41.6111 15.0435C41.3053 15.3946 41.0393 15.6905 40.8031 15.9261C40.5515 16.1888 40.312 16.4313 40.0847 16.6542L39.5852 17.1303C39.2913 17.4022 39.0204 17.6355 38.771 17.8315C38.2141 18.2727 37.8075 18.4931 37.5514 18.4931C37.4142 18.4931 37.304 18.4614 37.2248 18.3964L37.1015 18.2061C37.0774 18.1341 37.0651 18.0492 37.0651 17.9515C37.0651 17.7258 37.1604 17.4351 37.3511 17.0741C37.5415 16.7181 37.913 16.1668 38.4652 15.4245C38.5364 15.3154 38.653 15.1564 38.8062 14.9475L38.8314 14.9131C39.82 13.5597 40.3167 12.5069 40.3167 11.7547ZM50.1391 10.6168C50.0769 10.5621 50.0103 10.5131 49.9395 10.47C50.3979 10.4047 50.8478 10.2949 51.2896 10.1412C52.3084 9.78641 53.4685 9.13344 54.3776 8.29862C55.0858 8.45945 55.7935 8.56411 56.5223 8.62671C56.5406 8.70688 56.5654 8.78779 56.5973 8.8687C56.7184 9.11118 56.8764 9.35365 57.0882 9.59589C57.0885 9.59341 57.0893 9.59069 57.0901 9.58846C57.3737 9.91779 57.7127 10.1684 58.1168 10.3495C57.6129 11.0206 56.894 11.8378 55.955 12.8001C55.4948 13.2758 55.0573 13.7681 54.62 14.2602C54.102 14.8431 53.5843 15.4257 53.0292 15.9802C52.5862 16.44 52.1786 16.8403 51.8066 17.1805L51.429 17.5153C51.2668 17.6546 51.112 17.7808 50.9649 17.8934C50.3867 18.332 49.9635 18.548 49.6951 18.548C49.5143 18.548 49.3907 18.5176 49.3234 18.4553C49.2565 18.3988 49.2253 18.2855 49.2253 18.1254C49.2253 17.9035 49.2927 17.6407 49.4214 17.3413C49.4417 17.2936 49.4663 17.2397 49.496 17.18L49.7201 16.7688C49.7201 16.7688 50.1012 16.1324 50.3711 15.7068L53.7723 10.3592L51.7338 10.4824L50.459 12.3391C50.5004 12.2105 50.5311 12.0865 50.5519 11.9786C50.5724 11.8648 50.5826 11.7616 50.5826 11.6587C50.5826 11.2252 50.433 10.8798 50.1391 10.6168ZM58.4422 9.89279C58.381 9.98434 58.3147 10.0793 58.2434 10.1778C58.0339 10.0935 57.8432 9.99671 57.6763 9.88834C57.4517 9.74211 57.2617 9.58796 57.1367 9.40189C57.1377 9.39892 57.1381 9.39596 57.1389 9.39299C56.9752 9.13269 56.8593 8.88403 56.7969 8.64823C57.5772 8.70365 58.3843 8.7133 59.2445 8.69499L58.4422 9.89279ZM59.7405 7.9542L59.3773 8.49656C58.4623 8.55272 57.6005 8.56806 56.7682 8.52031C56.742 8.37705 56.7363 8.23849 56.7533 8.10587C56.8797 7.13249 58.0901 6.79673 58.9164 6.78312C59.2757 6.77718 59.615 6.83731 59.9159 6.96102C60.0461 7.01471 60.1538 7.07731 60.2418 7.14585L59.9993 7.53184H58.5418L58.2981 7.9542H59.7405ZM61.8494 7.53184L62.4625 6.55598C62.6351 6.64333 62.8065 6.73116 62.9761 6.81875C63.5214 7.10008 64.0714 7.33563 64.6276 7.53184H61.8494ZM65.0426 7.9542L65.1766 7.71246C65.3096 7.75328 65.443 7.79163 65.5768 7.82825C65.5297 7.97373 65.473 8.11996 65.4061 8.26644C64.6239 9.9826 62.2372 10.543 60.5154 10.5616C60.3304 10.5636 60.1467 10.5581 59.9661 10.546L61.5909 7.9542H65.0426ZM57.1293 15.0717L59.8606 10.7142C60.5322 10.7454 61.3081 10.6944 62.2033 10.5749C64.0865 10.0915 65.2826 9.2037 65.7216 7.86685C65.9235 7.9198 66.1263 7.96706 66.3303 8.01011C65.2967 9.61766 64.1866 11.07 62.9992 12.3732C62.8868 12.4961 62.7743 12.6193 62.6615 12.7428C61.7073 13.7878 60.7367 14.8507 59.7406 15.8469C59.5957 15.9966 59.456 16.1391 59.3216 16.2747C58.4752 16.461 57.8422 16.8267 57.3799 17.4158L57.3787 17.4124C57.3782 17.4111 57.3776 17.4084 57.3776 17.4084C57.1736 17.6642 57.0238 17.9181 56.9116 18.1705C56.8967 18.2128 56.8839 18.2548 56.873 18.2966C56.6429 18.3996 56.4329 18.451 56.2437 18.451C56.1046 18.451 55.9849 18.3914 55.8856 18.2769C55.7809 18.1578 55.7311 18.0287 55.7311 17.8842C55.7311 17.6808 55.8458 17.3475 56.0743 16.8952C56.3034 16.4382 56.6565 15.832 57.1293 15.0717ZM57.5369 17.8995C57.4197 17.9851 57.3061 18.0606 57.1969 18.1262C57.2553 17.9614 57.3363 17.7904 57.4368 17.6138C57.4359 17.6105 57.4353 17.6076 57.4343 17.6046C57.553 17.4094 57.7384 17.2446 57.9591 17.0865C58.2463 16.8804 58.6089 16.7074 59.0199 16.5758C58.4021 17.1855 57.9093 17.6256 57.5369 17.8995ZM59.846 18.4503L59.9124 18.4449C59.9124 18.4464 59.9123 18.4481 59.9121 18.4496C59.9352 18.4478 59.958 18.4468 59.9805 18.4464L60.0277 18.4478L60.1088 18.4506C60.9591 18.5248 61.3521 19.5135 60.3321 19.9866C60.0337 20.1249 59.6942 20.1999 59.3317 20.2083C58.4979 20.2271 57.2642 19.9324 57.0988 18.9434C57.083 18.8489 57.078 18.7507 57.0839 18.65C57.179 18.6054 57.2768 18.5535 57.3769 18.4946C58.1651 18.431 58.9835 18.4201 59.851 18.4426L59.846 18.4503ZM61.2477 16.2846L59.9842 18.2368C59.1534 18.2445 58.3736 18.2729 57.6245 18.338C57.6277 18.3357 57.6309 18.3336 57.6341 18.3314L57.6414 18.3266C58.1339 17.9874 58.8516 17.3404 59.7992 16.3855C60.1187 16.3294 60.4537 16.2955 60.795 16.2856C60.9413 16.2816 61.0926 16.2809 61.2477 16.2846ZM64.2205 11.6916L61.3487 16.1287C60.8616 16.1136 60.4176 16.125 60.0137 16.1661C60.7556 15.3972 61.4836 14.6139 62.213 13.8293C62.8772 13.1146 63.5426 12.3988 64.2205 11.6916ZM78.6392 13.2368C77.6487 14.1281 76.4561 14.7239 75.0718 15.0294C75.5745 13.6513 76.2852 12.4908 77.1975 11.5373C78.1053 10.5894 78.9037 10.1126 79.5829 10.1126C79.7335 10.1126 79.8627 10.1747 79.9667 10.2939C80.0755 10.4181 80.1275 10.5636 80.1275 10.7343C80.1275 11.5115 79.6295 12.3508 78.6392 13.2368ZM44.0332 18.2908C43.9045 18.1203 43.8374 17.8882 43.8374 17.5945C43.8374 17.4886 43.8433 17.3778 43.8554 17.2622L43.9047 16.9319C43.9802 16.5333 44.1192 16.0852 44.3227 15.5881C44.6424 14.7939 45.0864 13.9947 45.654 13.2005C46.2374 12.4065 46.8255 11.7874 47.4191 11.3492C48.0179 10.911 48.5649 10.6943 49.0708 10.6943C49.3497 10.6943 49.5921 10.7871 49.788 10.9729C49.9846 11.1584 50.0824 11.3903 50.0824 11.6587C50.0824 12.2927 49.8553 13.0461 49.396 13.9173C48.9366 14.7887 48.2863 15.6809 47.4501 16.5989C46.8978 17.2125 46.3664 17.6923 45.8556 18.0327C45.7889 18.0778 45.7238 18.1196 45.6599 18.1587L45.2969 18.3571C45.0265 18.4848 44.7883 18.5481 44.5805 18.5481C44.3482 18.5481 44.1625 18.4605 44.0332 18.2908ZM40.4762 6.17451C40.0798 6.27793 39.719 6.30466 39.3998 6.24255L39.4018 6.24008C38.5561 6.09533 39.0677 4.93614 41.4527 4.6464C42.0844 4.63749 42.6537 4.68376 43.1551 4.78867C42.3112 5.40229 41.4195 5.92881 40.4762 6.17451ZM44.5245 3.7131C44.133 4.03501 43.7299 4.36235 43.3151 4.67114C42.7196 4.52219 42.0998 4.47196 41.5324 4.50784C40.7465 4.55732 39.9062 4.75848 39.2391 5.26422C38.7389 5.64403 38.7054 6.21879 39.272 6.3576C39.6561 6.48527 40.0743 6.46572 40.5151 6.34844C41.5116 6.08345 42.4608 5.49655 43.3634 4.83666C43.8839 4.9678 44.324 5.16821 44.6756 5.44261C44.8891 5.60913 45.0646 5.7989 45.204 6.00452C42.7413 7.06844 40.2625 8.07721 37.655 8.58641C37.2897 8.65767 36.9197 8.71903 36.5451 8.7705C36.0949 8.08489 35.894 7.21815 35.9238 6.14258C35.9421 4.55188 37.9353 3.33924 39.8832 2.90055C41.5421 2.52669 43.2302 2.85725 44.7761 3.50749C44.6922 3.57578 44.6085 3.64407 44.5245 3.7131ZM47.3884 9.51724C46.5274 8.19574 48.3071 6.85766 49.4401 6.21237C50.0418 6.58004 50.6468 6.9247 51.2631 7.21345C52.2346 7.66847 53.1538 7.99482 54.0668 8.22394C53.2387 8.88556 52.2212 9.35369 51.272 9.69317C50.2392 10.0626 49.2155 10.2232 48.2051 10.0861C47.8238 9.96336 47.5543 9.77185 47.3884 9.51724ZM54.1008 2.16941C54.2974 2.31119 54.4794 2.46509 54.6453 2.62889C53.7945 2.79887 52.9275 3.01487 52.0518 3.27442C50.6252 3.71856 49.2269 4.27626 47.8359 4.86687C47.0279 4.37671 46.1716 3.89893 45.1689 3.45826C46.1787 2.73478 47.2277 2.19391 48.4587 1.81436C49.3445 1.54144 50.23 1.38309 51.1155 1.32866C52.2641 1.31554 53.2717 1.57212 54.1008 2.16941ZM44.6677 3.83435C44.7717 3.7527 44.876 3.67303 44.9805 3.59558C45.2796 3.72771 45.5733 3.87122 45.8595 4.02363C46.4219 4.32302 46.9739 4.65705 47.5212 5.00072C47.0514 5.20181 46.5824 5.40587 46.1134 5.60995L46.1121 5.6105C45.8908 5.70681 45.6694 5.80312 45.448 5.89913C45.4254 5.87266 45.4027 5.84618 45.3789 5.81996C44.8985 5.29021 44.2309 4.93342 43.5147 4.72509C43.8578 4.46972 44.1941 4.20588 44.5236 3.94737L44.6677 3.83435ZM12.5087 24.1952C12.3982 24.267 12.2873 24.3392 12.1762 24.4115C10.8204 25.2942 9.4235 26.2036 8.03719 26.8108C7.13878 27.2045 6.22575 27.4628 5.25466 27.5276C3.65099 27.6345 2.35928 27.635 1.5177 27.1725C-0.787142 25.9055 1.27547 23.3047 2.64673 22.3029C4.88014 20.6716 8.67806 19.4731 10.9241 21.693L13.7406 20.3599L16.4438 19.0804C16.5407 18.7902 16.6375 18.4999 16.7345 18.2097C16.3214 18.4161 15.9083 18.6315 15.4952 18.8469C15.0852 19.0608 14.6751 19.2746 14.2652 19.4795C13.6847 18.6447 12.188 18.2441 10.4779 18.2654C10.3724 18.2666 10.2669 18.2696 10.1614 18.274L13.4678 14.8388H22.7486C22.5237 16.8496 22.1698 18.5212 21.7088 19.9135C20.9775 20.0295 19.8508 20.3888 18.5829 20.9094C17.1228 21.5087 15.4714 22.3232 14.0195 23.2271C13.537 23.5274 13.0339 23.8541 12.5242 24.1852L12.5087 24.1952Z" fill="black"/>
<path d="M28.4423 25.4757H31.6475V29.4807C31.2297 29.6558 30.784 29.7871 30.3105 29.8747C29.837 29.9582 29.3336 30 28.8004 30C27.8733 30 27.0914 29.8249 26.4547 29.4748C25.8221 29.1206 25.3426 28.6093 25.0163 27.9408C24.69 27.2723 24.5269 26.4685 24.5269 25.5294C24.5269 24.654 24.7039 23.8761 25.0581 23.1957C25.4162 22.5153 25.9275 21.982 26.592 21.5961C27.2565 21.2101 28.0524 21.0171 28.9795 21.0171C29.457 21.0171 29.9066 21.0609 30.3284 21.1484C30.7542 21.236 31.1581 21.3673 31.5401 21.5424L31.2954 22.0915C30.9173 21.9164 30.5314 21.7851 30.1374 21.6975C29.7475 21.61 29.3516 21.5662 28.9497 21.5662C28.1618 21.5662 27.4834 21.7353 26.9143 22.0736C26.3493 22.4078 25.9156 22.8734 25.6132 23.4702C25.3147 24.0631 25.1655 24.7475 25.1655 25.5235C25.1655 26.4029 25.3107 27.133 25.6012 27.714C25.8917 28.2949 26.3155 28.7307 26.8726 29.0211C27.4336 29.3116 28.114 29.4568 28.9138 29.4568C29.3516 29.4568 29.7435 29.425 30.0897 29.3613C30.4398 29.2977 30.7562 29.2141 31.0387 29.1107V26.0368H28.4423V25.4757Z" fill="black"/>
<path d="M38.7324 23.3926V29.8806H38.2429L38.1534 28.7108H38.1176C38.0062 28.9495 37.849 29.1664 37.6461 29.3613C37.4431 29.5563 37.1944 29.7115 36.9 29.8269C36.6055 29.9423 36.2633 30 35.8733 30C35.376 30 34.9581 29.9144 34.6199 29.7433C34.2857 29.5683 34.033 29.3056 33.8619 28.9555C33.6908 28.6053 33.6052 28.1676 33.6052 27.6424V23.3926H34.2081V27.5827C34.2081 28.2313 34.3533 28.7088 34.6438 29.0152C34.9383 29.3216 35.368 29.4748 35.933 29.4748C36.4105 29.4748 36.8104 29.3832 37.1327 29.2002C37.459 29.0172 37.7057 28.7406 37.8729 28.3705C38.044 27.9965 38.1295 27.5309 38.1295 26.9739V23.3926H38.7324Z" fill="black"/>
<path d="M41.5138 23.3926V29.8806H40.9109V23.3926H41.5138ZM41.2213 20.9932C41.3725 20.9932 41.4839 21.039 41.5555 21.1305C41.6272 21.2181 41.663 21.3374 41.663 21.4886C41.663 21.6398 41.6272 21.7592 41.5555 21.8468C41.4839 21.9343 41.3725 21.9781 41.2213 21.9781C41.0781 21.9781 40.9706 21.9343 40.899 21.8468C40.8274 21.7592 40.7916 21.6398 40.7916 21.4886C40.7916 21.3374 40.8274 21.2181 40.899 21.1305C40.9706 21.039 41.0781 20.9932 41.2213 20.9932Z" fill="black"/>
<path d="M46.0321 30C45.1447 30 44.4683 29.7215 44.0027 29.1644C43.5411 28.6033 43.3103 27.7876 43.3103 26.7172C43.3103 25.5951 43.5551 24.7396 44.0445 24.1507C44.5339 23.5618 45.2163 23.2673 46.0918 23.2673C46.4658 23.2673 46.7901 23.325 47.0647 23.4404C47.3432 23.5558 47.576 23.713 47.763 23.9119C47.954 24.1069 48.1012 24.3297 48.2047 24.5804H48.2524C48.2365 24.3695 48.2246 24.1427 48.2166 23.9C48.2087 23.6573 48.2047 23.4344 48.2047 23.2315V20.5933H48.8075V29.8806H48.3181L48.2405 28.6929H48.2047C48.0972 28.9316 47.948 29.1505 47.757 29.3494C47.57 29.5484 47.3352 29.7075 47.0527 29.8269C46.7702 29.9423 46.43 30 46.0321 30ZM46.0977 29.4748C46.8617 29.4748 47.4049 29.238 47.7272 28.7645C48.0495 28.287 48.2106 27.6066 48.2106 26.7232V26.6277C48.2106 25.7125 48.0495 25.0122 47.7272 24.5267C47.4049 24.0373 46.8796 23.7926 46.1514 23.7926C45.4312 23.7926 44.8801 24.0432 44.4981 24.5446C44.1201 25.046 43.9311 25.7742 43.9311 26.7292C43.9311 27.6284 44.1082 28.3109 44.4623 28.7764C44.8204 29.242 45.3656 29.4748 46.0977 29.4748Z" fill="black"/>
<path d="M53.4213 23.2673C53.9744 23.2673 54.434 23.3966 54.8001 23.6553C55.1701 23.9139 55.4447 24.2681 55.6238 24.7177C55.8068 25.1673 55.8983 25.6826 55.8983 26.2636V26.6993H51.2129C51.2129 27.5906 51.4178 28.275 51.8277 28.7525C52.2415 29.23 52.8324 29.4688 53.6004 29.4688C54.0023 29.4688 54.3504 29.437 54.6449 29.3733C54.9433 29.3056 55.2736 29.1922 55.6357 29.0331V29.5882C55.3174 29.7314 54.999 29.8349 54.6807 29.8985C54.3624 29.9662 53.9963 30 53.5825 30C52.9259 30 52.3748 29.8647 51.9291 29.5941C51.4875 29.3196 51.1532 28.9336 50.9264 28.4362C50.7036 27.9388 50.5922 27.3579 50.5922 26.6933C50.5922 26.0447 50.6996 25.4618 50.9145 24.9445C51.1333 24.4272 51.4516 24.0194 51.8695 23.7209C52.2912 23.4185 52.8085 23.2673 53.4213 23.2673ZM53.4153 23.7866C52.7946 23.7866 52.2912 23.9935 51.9053 24.4073C51.5233 24.8172 51.2985 25.4101 51.2308 26.186H55.2716C55.2716 25.7125 55.204 25.2947 55.0687 24.9326C54.9334 24.5705 54.7285 24.2899 54.4539 24.091C54.1833 23.8881 53.8371 23.7866 53.4153 23.7866Z" fill="black"/>
</svg>
